<svg width="336" height="1428" viewBox="0 0 336 1428" fill="none" xmlns="http://www.w3.org/2000/svg">
<path fill-rule="evenodd" clip-rule="evenodd" d="M37.8551 135.189C37.6966 135.938 36.9618 136.415 36.2137 136.257L24.0237 133.675C23.2756 133.517 22.7976 132.782 22.9561 132.034C23.1145 131.286 23.8493 130.808 24.5974 130.966L33.7043 132.895C33.6683 132.828 33.6326 132.761 33.5971 132.694C33.2401 132.017 33.4989 131.18 34.1751 130.823C34.7614 130.513 35.4689 130.667 35.8794 131.154L37.7279 122.426C37.8864 121.678 38.6212 121.2 39.3693 121.358C40.1173 121.516 40.5953 122.251 40.4368 122.999L37.8551 135.189ZM33.1605 109.251C32.6765 111.29 32.3901 113.391 32.3215 115.525C32.2969 116.289 31.6575 116.889 30.8933 116.864C30.129 116.84 29.5294 116.2 29.5539 115.436C29.6286 113.113 29.9404 110.827 30.4664 108.612C30.643 107.868 31.3893 107.408 32.1333 107.584C32.8772 107.761 33.3371 108.507 33.1605 109.251ZM31.0172 119.387C31.7753 119.288 32.4706 119.822 32.5701 120.58C32.839 122.629 33.3169 124.689 34.0219 126.737C34.2708 127.46 33.8865 128.248 33.1635 128.497C32.4405 128.746 31.6526 128.361 31.4037 127.638C30.6378 125.414 30.1175 123.172 29.8246 120.94C29.7251 120.182 30.2591 119.487 31.0172 119.387ZM32.9104 105.179C32.2035 104.888 31.8669 104.078 32.1585 103.371C33.0392 101.237 34.1261 99.2011 35.3951 97.299C35.8195 96.6629 36.6791 96.4913 37.3152 96.9157C37.9513 97.3401 38.1229 98.1997 37.6985 98.8358C36.5303 100.587 35.5294 102.461 34.7182 104.427C34.4266 105.134 33.6172 105.471 32.9104 105.179ZM38.8811 94.9304C38.321 94.4099 38.289 93.5338 38.8095 92.9738C40.3794 91.2847 42.1181 89.7598 44.001 88.4357C44.6265 87.9958 45.4901 88.1463 45.93 88.7717C46.3698 89.3972 46.2193 90.2608 45.5939 90.7007C43.8729 91.9109 42.2795 93.3077 40.8378 94.8589C40.3172 95.419 39.4412 95.451 38.8811 94.9304ZM48.1168 87.5014C47.7934 86.8085 48.0928 85.9847 48.7857 85.6612C50.86 84.6929 53.0552 83.9498 55.3464 83.4678C56.0947 83.3103 56.8289 83.7893 56.9863 84.5376C57.1438 85.2858 56.6648 86.02 55.9165 86.1775C53.8382 86.6147 51.8443 87.2892 49.957 88.1703C49.2642 88.4937 48.4403 88.1943 48.1168 87.5014ZM59.5011 84.2487C59.4839 83.4842 60.0897 82.8506 60.8542 82.8334C63.0929 82.7831 65.392 82.979 67.7312 83.4465C68.481 83.5964 68.9674 84.3257 68.8175 85.0755C68.6677 85.8253 67.9384 86.3117 67.1886 86.1618C65.0464 85.7337 62.9501 85.556 60.9164 85.6017C60.1519 85.6189 59.5183 85.0131 59.5011 84.2487ZM71.2437 85.7721C71.5099 85.0553 72.3067 84.69 73.0235 84.9562C75.07 85.7161 77.132 86.6883 79.1977 87.8873C79.859 88.2711 80.0839 89.1184 79.7001 89.7797C79.3162 90.441 78.469 90.6659 77.8077 90.2821C75.8721 89.1586 73.9523 88.2548 72.0596 87.552C71.3428 87.2858 70.9775 86.4889 71.2437 85.7721ZM81.8113 91.1828C82.2684 90.5699 83.1359 90.4436 83.7488 90.9007C85.477 92.1897 87.2015 93.6448 88.9157 95.2748C89.4698 95.8017 89.4919 96.678 88.965 97.2322C88.4381 97.7863 87.5617 97.8083 87.0076 97.2814C85.3691 95.7234 83.7286 94.34 82.0934 93.1204C81.4804 92.6632 81.3541 91.7958 81.8113 91.1828ZM88.4849 122.139C87.7366 121.982 87.2575 121.248 87.4149 120.499C87.8214 118.566 89.1481 116.491 91.4361 114.289C91.987 113.758 92.8634 113.775 93.3937 114.326C93.924 114.877 93.9074 115.753 93.3565 116.283C91.261 118.301 90.3693 119.906 90.1246 121.069C89.9673 121.817 89.2331 122.297 88.4849 122.139ZM90.7149 99.0422C91.2843 98.5318 92.1596 98.5796 92.67 99.1489C93.3875 99.9493 94.1024 100.782 94.8141 101.648C95.6961 102.415 96.5208 103.164 97.2908 103.896C97.8453 104.422 97.8679 105.298 97.3414 105.853C96.8149 106.407 95.9385 106.43 95.3841 105.903C94.6204 105.178 93.797 104.431 92.9108 103.663L92.8218 103.585L92.7471 103.494C92.036 102.626 91.3228 101.794 90.6083 100.997C90.0978 100.428 90.1456 99.5526 90.7149 99.0422ZM89.6433 124.567C90.0491 123.918 90.9034 123.722 91.5515 124.128C92.8874 124.964 94.972 125.38 97.1405 125.176C97.9018 125.105 98.5769 125.664 98.6485 126.425C98.7201 127.186 98.161 127.861 97.3998 127.933C94.8098 128.177 92.0708 127.72 90.0819 126.475C89.4339 126.069 89.2375 125.215 89.6433 124.567ZM95.376 112.743C94.9333 112.119 95.0798 111.255 95.7032 110.812C96.5925 110.181 97.5635 109.534 98.6207 108.871C98.5679 108.43 98.7285 107.971 99.0905 107.658C99.5782 107.237 100.276 107.216 100.782 107.566C100.997 107.442 101.214 107.316 101.434 107.191C102.098 106.811 102.943 107.042 103.323 107.706C103.702 108.37 103.471 109.215 102.807 109.595C102.737 109.635 102.667 109.675 102.597 109.715C103.62 111.063 104.432 112.342 105.053 113.552C105.403 114.232 105.134 115.067 104.454 115.416C103.774 115.765 102.939 115.497 102.59 114.817C102.018 113.702 101.236 112.479 100.205 111.146C99.1447 111.808 98.1805 112.449 97.3065 113.07C96.683 113.513 95.8187 113.366 95.376 112.743ZM101.138 125.651C100.713 125.015 100.883 124.155 101.519 123.73C102.992 122.745 103.93 121.305 103.895 119.287C103.881 118.522 104.49 117.891 105.255 117.878C106.019 117.865 106.65 118.474 106.663 119.238C106.717 122.328 105.199 124.6 103.058 126.032C102.423 126.457 101.563 126.286 101.138 125.651ZM105.577 106.5C105.231 105.818 105.504 104.985 106.186 104.639C107.174 104.138 108.209 103.63 109.292 103.114C110.267 102.65 111.211 102.225 112.127 101.835C112.831 101.536 113.644 101.864 113.943 102.568C114.243 103.271 113.915 104.084 113.211 104.384C112.332 104.758 111.423 105.167 110.482 105.615C109.419 106.121 108.405 106.619 107.438 107.109C106.756 107.455 105.923 107.182 105.577 106.5ZM115.885 101.825C115.642 101.1 116.033 100.315 116.758 100.072C118.932 99.3446 120.925 98.8217 122.777 98.4326C123.525 98.2753 124.259 98.7545 124.417 99.5028C124.574 100.251 124.095 100.985 123.346 101.142C121.594 101.511 119.704 102.006 117.637 102.698C116.912 102.941 116.128 102.55 115.885 101.825ZM126.484 99.1703C126.39 98.4115 126.929 97.7203 127.688 97.6265C128.955 97.4701 130.215 97.3488 131.401 97.2346C132.225 97.1553 133.013 97.0794 133.743 96.9975C134.503 96.9123 135.188 97.4593 135.273 98.2192C135.359 98.979 134.812 99.6641 134.052 99.7493C133.211 99.8436 132.398 99.9212 131.575 100C130.448 100.108 129.3 100.217 128.027 100.375C127.269 100.468 126.577 99.9292 126.484 99.1703ZM137.341 97.8976C137.15 97.157 137.596 96.4023 138.337 96.212C140.053 95.7707 141.763 95.1141 143.58 94.0541C144.24 93.6688 145.088 93.8919 145.473 94.5524C145.859 95.2129 145.636 96.0607 144.975 96.4459C142.921 97.6442 140.971 98.3937 139.026 98.8938C138.286 99.0841 137.531 98.6381 137.341 97.8976ZM149.676 36.2901C150.291 35.8349 151.158 35.9641 151.613 36.5785C152.254 37.4435 152.867 38.3568 153.45 39.3118C153.849 39.9644 153.643 40.8165 152.99 41.2151C152.338 41.6136 151.486 41.4078 151.087 40.7552C150.544 39.8662 149.977 39.0215 149.388 38.2267C148.933 37.6123 149.062 36.7452 149.676 36.2901ZM147.173 93.3251C146.684 92.7378 146.763 91.8647 147.35 91.3751C148.055 90.7878 148.783 90.1341 149.54 89.4053C150.263 88.7088 150.936 87.9705 151.559 87.1947C152.037 86.5985 152.909 86.5034 153.505 86.9821C154.101 87.4609 154.196 88.3324 153.718 88.9285C153.023 89.794 152.271 90.6197 151.461 91.3999C150.66 92.1706 149.883 92.8689 149.123 93.502C148.536 93.9916 147.663 93.9124 147.173 93.3251ZM154.065 43.2565C154.76 42.9382 155.582 43.2438 155.9 43.9391C156.784 45.87 157.563 47.9099 158.224 50.0219C158.452 50.7516 158.046 51.5283 157.316 51.7566C156.586 51.9848 155.81 51.5783 155.581 50.8485C154.954 48.8429 154.216 46.9122 153.383 45.0917C153.064 44.3965 153.37 43.5748 154.065 43.2565ZM157.9 53.9891C158.648 53.83 159.383 54.3073 159.542 55.0553C159.991 57.1653 160.322 59.3188 160.522 61.4835C160.592 62.2449 160.032 62.9191 159.271 62.9895C158.509 63.0598 157.835 62.4997 157.765 61.7383C157.575 59.6841 157.261 57.638 156.834 55.6314C156.675 54.8835 157.152 54.1482 157.9 53.9891ZM154.766 85.0474C154.091 84.6896 153.833 83.8517 154.191 83.176C155.122 81.4165 155.872 79.5336 156.451 77.5609C156.666 76.8272 157.435 76.4068 158.169 76.622C158.902 76.8372 159.323 77.6065 159.108 78.3402C158.481 80.4755 157.664 82.5334 156.638 84.4719C156.28 85.1476 155.442 85.4053 154.766 85.0474ZM159.371 65.2947C160.136 65.3012 160.75 65.9262 160.744 66.6908C160.725 68.8852 160.561 71.0682 160.236 73.2056C160.121 73.9616 159.415 74.4812 158.659 74.3662C157.903 74.2513 157.384 73.5453 157.499 72.7893C157.803 70.7912 157.958 68.74 157.975 66.6675C157.982 65.9029 158.607 65.2883 159.371 65.2947Z" fill="#E4E4E4"/>
<path fill-rule="evenodd" clip-rule="evenodd" d="M188.5 53.4026C187.457 52.5079 187.456 52.5087 187.455 52.5098L187.452 52.5136L187.441 52.5265L187.401 52.5735C187.367 52.6143 187.317 52.674 187.253 52.7523C187.124 52.9089 186.935 53.14 186.694 53.4436C186.21 54.0508 185.514 54.9485 184.651 56.1213C182.925 58.4667 180.531 61.9138 177.847 66.3406C172.48 75.1916 165.939 87.9739 161.241 103.708C152.022 134.581 149.915 176.79 177.605 222.843L168.705 220.89C167.962 220.727 167.22 221.202 167.048 221.951C166.875 222.7 167.338 223.44 168.081 223.603L180.189 226.259C180.932 226.422 181.674 225.947 181.846 225.198L184.655 212.992C184.828 212.243 184.365 211.503 183.622 211.34C182.879 211.177 182.137 211.653 181.965 212.402L179.919 221.291C152.754 176.051 154.856 134.71 163.885 104.472C168.5 89.0187 174.927 76.4572 180.2 67.7614C182.836 63.4147 185.181 60.0376 186.863 57.7522C187.704 56.6095 188.379 55.7401 188.841 55.1591C189.073 54.8687 189.251 54.6503 189.37 54.506C189.429 54.4339 189.474 54.3803 189.503 54.3454L189.535 54.3072L189.544 54.2973" fill="#242938"/>
<path fill-rule="evenodd" clip-rule="evenodd" d="M67.9462 374.891C68.5051 375.412 68.5352 376.288 68.0135 376.847C67.2615 377.653 66.5141 378.461 65.7715 379.272C65.255 379.836 64.3793 379.874 63.8154 379.358C63.2515 378.841 63.2131 377.966 63.7296 377.402C64.4781 376.584 65.2314 375.77 65.9893 374.958C66.5111 374.399 67.3872 374.369 67.9462 374.891ZM62.1192 381.238C62.6908 381.746 62.7425 382.621 62.2347 383.193C60.7682 384.843 59.3224 386.502 57.8992 388.167C57.4023 388.749 56.5284 388.817 55.9472 388.32C55.3659 387.823 55.2975 386.949 55.7944 386.368C57.2291 384.69 58.6864 383.017 60.1646 381.354C60.6725 380.782 61.5476 380.73 62.1192 381.238ZM54.3166 390.258C54.9055 390.746 54.9875 391.618 54.4997 392.207C53.0889 393.911 51.7028 395.618 50.3433 397.328C49.8673 397.926 48.9964 398.026 48.3979 397.55C47.7994 397.074 47.7001 396.203 48.176 395.605C49.5471 393.88 50.9448 392.158 52.3672 390.441C52.8549 389.852 53.7277 389.77 54.3166 390.258ZM46.838 399.545C47.4442 400.011 47.5579 400.88 47.0919 401.486C45.7409 403.244 44.4195 405.001 43.1296 406.756C42.6768 407.372 41.8102 407.504 41.1941 407.051C40.578 406.598 40.4457 405.732 40.8986 405.116C42.2004 403.345 43.5337 401.571 44.8965 399.799C45.3625 399.192 46.2318 399.079 46.838 399.545ZM39.7129 409.104C40.337 409.546 40.485 410.41 40.0433 411.034C38.7575 412.851 37.5075 414.663 36.2953 416.467C35.8689 417.101 35.0086 417.27 34.374 416.844C33.7393 416.417 33.5706 415.557 33.9971 414.922C35.222 413.1 36.4846 411.269 37.783 409.435C38.2246 408.81 39.0887 408.662 39.7129 409.104ZM32.9826 418.96C33.626 419.373 33.8126 420.23 33.3993 420.873C32.1946 422.749 31.0336 424.613 29.9188 426.462C29.524 427.116 28.6731 427.327 28.0183 426.932C27.3635 426.538 27.1527 425.687 27.5475 425.032C28.6763 423.16 29.8512 421.274 31.0695 419.377C31.4827 418.733 32.3393 418.547 32.9826 418.96ZM26.7394 429.113C27.4039 429.491 27.6359 430.336 27.2577 431.001C26.1491 432.948 25.0958 434.875 24.1008 436.777C23.7464 437.455 22.9098 437.716 22.2323 437.362C21.5548 437.008 21.2929 436.171 21.6473 435.493C22.6583 433.561 23.7273 431.606 24.8512 429.631C25.2295 428.967 26.0748 428.734 26.7394 429.113ZM21.0922 439.626C21.7809 439.958 22.07 440.786 21.7379 441.475C20.7627 443.497 19.8598 445.485 19.0328 447.434C18.7341 448.138 17.9214 448.466 17.2175 448.167C16.5136 447.869 16.1851 447.056 16.4838 446.352C17.3293 444.36 18.2507 442.331 19.2437 440.272C19.5759 439.583 20.4035 439.294 21.0922 439.626ZM16.2741 450.533C16.9912 450.798 17.3573 451.595 17.0919 452.312C16.3065 454.433 15.6227 456.497 15.0453 458.496C14.8331 459.231 14.0656 459.654 13.331 459.442C12.5964 459.23 12.1729 458.463 12.3851 457.728C12.9831 455.658 13.6886 453.529 14.4951 451.351C14.7606 450.633 15.5571 450.267 16.2741 450.533ZM12.7122 461.905C13.461 462.06 13.9423 462.792 13.7873 463.541C13.3252 465.773 13.0201 467.899 12.8779 469.908C12.8239 470.671 12.1618 471.246 11.3991 471.192C10.6363 471.138 10.0618 470.476 10.1158 469.713C10.2679 467.565 10.5923 465.315 11.0758 462.98C11.2308 462.231 11.9634 461.75 12.7122 461.905ZM11.3927 473.73C12.1545 473.665 12.8248 474.23 12.8898 474.992C13.0799 477.221 13.5294 479.24 14.2409 481.036C14.5225 481.747 14.1745 482.552 13.4636 482.833C12.7527 483.115 11.9482 482.767 11.6665 482.056C10.8404 479.971 10.3401 477.682 10.1308 475.227C10.0658 474.465 10.6308 473.795 11.3927 473.73ZM45.4372 482.886C44.4185 482.546 43.4786 482.412 42.6136 482.444C41.8495 482.473 41.2069 481.877 41.1782 481.113C41.1496 480.348 41.7458 479.706 42.5099 479.677C43.7419 479.631 45.0141 479.825 46.3144 480.26C47.6005 480.689 48.7234 481.16 49.6887 481.667C50.3656 482.023 50.626 482.86 50.2703 483.537C49.9146 484.214 49.0775 484.474 48.4006 484.118C47.5908 483.693 46.6094 483.277 45.4372 482.886ZM38.7236 482.117C39.2078 482.709 39.1205 483.581 38.5286 484.065C37.1945 485.156 35.9867 486.798 34.9688 488.949C34.6417 489.64 33.8163 489.935 33.1251 489.608C32.434 489.281 32.1388 488.456 32.4658 487.764C33.603 485.361 35.0349 483.346 36.7754 481.922C37.3672 481.438 38.2395 481.525 38.7236 482.117ZM52.444 485.349C53.1815 485.147 53.9431 485.582 54.145 486.319C54.9363 489.209 52.9262 491.715 50.2914 493.358C49.6427 493.763 48.7887 493.565 48.384 492.917C47.9793 492.268 48.1772 491.414 48.8259 491.009C51.174 489.544 51.7573 488.084 51.4743 487.05C51.2724 486.313 51.7065 485.551 52.444 485.349ZM14.739 485.028C15.3268 484.539 16.1997 484.619 16.6888 485.207C17.3258 485.973 18.0464 486.677 18.8553 487.317C19.7344 488.012 20.6304 488.643 21.5378 489.212C22.1854 489.619 22.3807 490.474 21.974 491.121C21.5674 491.769 20.7128 491.964 20.0653 491.557C19.0738 490.935 18.0959 490.246 17.1376 489.488C16.1796 488.731 15.3209 487.892 14.5601 486.978C14.0711 486.39 14.1512 485.517 14.739 485.028ZM24.3896 492.357C24.6765 491.648 25.4837 491.306 26.1924 491.593C27.6581 492.186 29.1312 492.646 30.5908 492.987C30.8132 492.288 31.5481 491.88 32.2651 492.07C33.0032 492.266 33.4431 493.022 33.2489 493.76C33.55 494.065 33.7055 494.506 33.6296 494.961C33.5435 495.478 33.1811 495.88 32.7187 496.041C32.4546 497.352 32.2416 498.734 32.0828 500.176C31.9992 500.936 31.3152 501.484 30.5552 501.401C29.7951 501.317 29.2468 500.633 29.3305 499.873C29.4898 498.425 29.7022 497.025 29.9663 495.685C28.3699 495.312 26.758 494.809 25.1536 494.16C24.4448 493.873 24.1028 493.066 24.3896 492.357ZM45.8483 493.92C46.0433 494.66 45.602 495.417 44.8626 495.612C42.7167 496.178 40.3034 496.514 37.7403 496.542C36.9757 496.55 36.3491 495.937 36.3407 495.173C36.3323 494.408 36.9454 493.781 37.71 493.773C40.0541 493.747 42.24 493.44 44.1566 492.935C44.8959 492.74 45.6534 493.181 45.8483 493.92ZM30.3962 503.994C31.1607 504.008 31.769 504.64 31.7548 505.404C31.7155 507.524 31.7823 509.726 31.9611 511.984C32.0215 512.746 31.4525 513.413 30.6903 513.473C29.928 513.534 29.2612 512.965 29.2008 512.202C29.015 509.858 28.9453 507.566 28.9863 505.353C29.0004 504.588 29.6317 503.98 30.3962 503.994ZM30.9909 516.064C31.7469 515.949 32.4528 516.469 32.5677 517.225C32.8926 519.363 33.3161 521.528 33.8425 523.699C34.0228 524.442 33.5665 525.19 32.8234 525.37C32.0803 525.551 31.3318 525.094 31.1515 524.351C30.6059 522.102 30.167 519.858 29.8301 517.641C29.7152 516.885 30.235 516.179 30.9909 516.064ZM33.525 527.878C34.2535 527.646 35.0323 528.048 35.2643 528.777C35.9264 530.855 36.6861 532.922 37.5471 534.958C37.8449 535.662 37.5154 536.475 36.8111 536.773C36.1068 537.07 35.2945 536.741 34.9967 536.037C34.1016 533.92 33.3127 531.773 32.6259 529.617C32.3939 528.888 32.7964 528.11 33.525 527.878ZM37.9173 539.133C38.5962 538.782 39.4318 539.047 39.7835 539.726C40.7887 541.666 41.8939 543.561 43.1024 545.394C43.5233 546.033 43.347 546.891 42.7086 547.312C42.0703 547.733 41.2116 547.557 40.7907 546.919C39.5264 545.001 38.3725 543.022 37.3249 540.999C36.9731 540.321 37.2384 539.485 37.9173 539.133ZM57.6853 560.798C57.8228 561.551 57.3246 562.272 56.5724 562.409L44.3152 564.651C43.563 564.789 42.8418 564.29 42.7042 563.538C42.5667 562.786 43.0649 562.065 43.8171 561.927L52.9283 560.261C52.8728 560.217 52.8173 560.173 52.762 560.129C52.1633 559.654 52.0636 558.783 52.5393 558.184C52.9759 557.635 53.7458 557.505 54.3323 557.856L52.72 549.039C52.5824 548.287 53.0806 547.566 53.8328 547.428C54.585 547.291 55.3062 547.789 55.4438 548.541L57.6853 560.798ZM44.239 549.424C44.8366 548.947 45.7077 549.044 46.1848 549.642C47.5413 551.341 49.0009 552.966 50.5667 554.5C51.1129 555.035 51.1219 555.912 50.5869 556.458C50.0518 557.004 49.1752 557.013 48.629 556.478C46.9793 554.862 45.4445 553.153 44.0207 551.369C43.5437 550.772 43.6414 549.901 44.239 549.424Z" fill="#E4E4E4"/>
<path fill-rule="evenodd" clip-rule="evenodd" d="M269.619 527.279C269.077 516.481 265.348 504.528 257.313 491.114L259.688 489.691C267.902 503.402 271.815 515.793 272.385 527.14C272.956 538.496 270.175 548.718 265.141 558.074C255.115 576.713 236.111 591.972 216.82 606.143C213.762 608.39 210.698 610.609 207.659 612.809C191.399 624.582 175.854 635.838 165.772 648.08C159.817 655.31 155.862 662.783 154.777 670.797C153.807 677.956 155.111 685.674 159.524 694.192L161.76 685.49C161.95 684.749 162.705 684.303 163.445 684.493C164.186 684.683 164.632 685.438 164.442 686.179L161.341 698.247C161.151 698.988 160.396 699.434 159.656 699.244L147.587 696.143C146.847 695.953 146.4 695.198 146.591 694.457C146.781 693.717 147.536 693.271 148.276 693.461L157.218 695.758C152.465 686.703 150.964 678.32 152.033 670.426C153.209 661.733 157.48 653.792 163.635 646.319C173.965 633.776 189.865 622.268 206.111 610.509C209.134 608.321 212.168 606.125 215.181 603.912C234.515 589.708 253.011 574.779 262.703 556.762C267.529 547.791 270.162 538.067 269.619 527.279Z" fill="#242938"/>
<path fill-rule="evenodd" clip-rule="evenodd" d="M320.521 981.882C321.062 982.422 321.938 982.422 322.479 981.882L331.29 973.071C331.83 972.53 331.83 971.653 331.29 971.113C330.749 970.572 329.873 970.572 329.332 971.113L322.804 977.641C322.797 977.519 322.791 977.398 322.784 977.278C322.74 976.514 322.086 975.931 321.323 975.974C320.559 976.018 319.976 976.672 320.02 977.436C320.02 977.446 320.021 977.456 320.021 977.466L313.668 971.113C313.127 970.572 312.251 970.572 311.71 971.113C311.169 971.653 311.169 972.53 311.71 973.071L320.521 981.882ZM321.024 973.233C321.778 973.102 322.282 972.385 322.151 971.632C321.712 969.1 321.078 966.809 320.261 964.741C319.98 964.03 319.175 963.681 318.464 963.962C317.753 964.244 317.405 965.048 317.686 965.759C318.426 967.632 319.012 969.737 319.423 972.106C319.554 972.859 320.271 973.364 321.024 973.233ZM317.174 961.488C317.805 961.055 317.965 960.194 317.532 959.563C316.097 957.474 314.403 955.725 312.487 954.27C311.878 953.808 311.01 953.927 310.547 954.536C310.085 955.145 310.204 956.013 310.813 956.475C312.499 957.755 313.986 959.291 315.249 961.131C315.682 961.761 316.544 961.921 317.174 961.488ZM308.151 953.14C308.465 952.443 308.153 951.623 307.456 951.309C305.328 950.353 303.039 949.631 300.626 949.095C299.879 948.929 299.14 949.4 298.974 950.146C298.808 950.893 299.279 951.632 300.025 951.798C302.289 952.301 304.394 952.969 306.321 953.835C307.018 954.149 307.838 953.837 308.151 953.14ZM245.061 949.819C242.749 949.845 240.46 949.819 238.206 949.723C237.442 949.691 236.797 950.284 236.764 951.048C236.732 951.812 237.325 952.457 238.089 952.49C240.4 952.588 242.739 952.614 245.092 952.588C245.857 952.579 246.469 951.952 246.461 951.188C246.452 950.423 245.825 949.81 245.061 949.819ZM249.228 951.11C249.26 951.874 249.905 952.468 250.669 952.437C252.982 952.341 255.302 952.21 257.615 952.06C258.378 952.011 258.957 951.352 258.907 950.589C258.858 949.826 258.199 949.248 257.436 949.297C255.138 949.446 252.84 949.576 250.555 949.67C249.791 949.701 249.197 950.346 249.228 951.11ZM233.999 950.856C234.076 950.095 233.521 949.416 232.761 949.339C230.469 949.107 228.229 948.783 226.053 948.346C225.303 948.195 224.574 948.681 224.423 949.431C224.273 950.18 224.759 950.91 225.508 951.061C227.783 951.517 230.113 951.854 232.482 952.094C233.242 952.171 233.921 951.617 233.999 950.856ZM261.673 950.395C261.729 951.157 262.392 951.73 263.155 951.675C263.928 951.618 264.699 951.561 265.468 951.504C267.006 951.39 268.535 951.278 270.054 951.17C270.817 951.116 271.392 950.454 271.338 949.692C271.284 948.929 270.622 948.354 269.859 948.408C268.335 948.516 266.799 948.629 265.257 948.743C264.49 948.8 263.721 948.857 262.953 948.913C262.19 948.969 261.617 949.632 261.673 950.395ZM274.098 949.51C274.142 950.274 274.796 950.857 275.56 950.813C277.901 950.679 280.2 950.576 282.444 950.524C283.208 950.506 283.814 949.872 283.796 949.108C283.778 948.343 283.144 947.738 282.38 947.756C280.095 947.809 277.764 947.914 275.402 948.049C274.638 948.092 274.055 948.747 274.098 949.51ZM296.221 949.709C296.305 948.949 295.757 948.265 294.997 948.181C292.738 947.932 290.393 947.796 287.984 947.743C287.219 947.726 286.586 948.333 286.569 949.097C286.553 949.861 287.159 950.495 287.923 950.511C290.269 950.563 292.531 950.695 294.693 950.934C295.453 951.017 296.137 950.469 296.221 949.709ZM221.742 948.761C221.967 948.03 221.557 947.256 220.826 947.031C218.657 946.363 216.572 945.553 214.587 944.579C213.9 944.243 213.071 944.526 212.734 945.213C212.397 945.899 212.681 946.729 213.368 947.066C215.496 948.109 217.717 948.971 220.011 949.677C220.742 949.902 221.517 949.492 221.742 948.761ZM210.343 943.821C210.777 943.191 210.618 942.329 209.989 941.895C208.192 940.657 206.499 939.238 204.923 937.615C204.39 937.066 203.514 937.053 202.965 937.586C202.416 938.119 202.403 938.995 202.936 939.544C204.642 941.301 206.475 942.837 208.417 944.175C209.047 944.609 209.909 944.451 210.343 943.821ZM201.204 935.465C201.827 935.021 201.972 934.157 201.528 933.534C200.89 932.639 200.278 931.695 199.694 930.701C199.306 930.042 198.458 929.821 197.798 930.209C197.139 930.596 196.919 931.445 197.306 932.104C197.931 933.167 198.587 934.178 199.273 935.141C199.717 935.764 200.581 935.909 201.204 935.465Z" fill="#E4E4E4"/>
<path fill-rule="evenodd" clip-rule="evenodd" d="M154.674 968.416C157.65 961.285 163.45 954.836 173.186 949.286L171.814 946.88C161.675 952.66 155.381 959.531 152.119 967.35C148.861 975.156 148.693 983.744 150.501 992.842C153.867 1009.78 164.188 1028.91 174.933 1048.83C175.673 1050.2 176.414 1051.58 177.156 1052.96C188.734 1074.47 200.341 1096.88 204.467 1118.88C208.398 1139.84 205.529 1160.38 189.251 1179.42L188.902 1170.4C188.872 1169.63 188.229 1169.04 187.465 1169.07C186.701 1169.1 186.105 1169.74 186.135 1170.51L186.617 1182.96C186.646 1183.72 187.29 1184.32 188.054 1184.29L200.505 1183.8C201.269 1183.77 201.864 1183.13 201.835 1182.37C201.805 1181.6 201.162 1181.01 200.398 1181.04L191.203 1181.39C208.252 1161.56 211.258 1140.07 207.189 1118.37C202.971 1095.88 191.141 1073.1 179.594 1051.64C178.878 1050.31 178.164 1048.99 177.452 1047.67C166.623 1027.59 156.498 1008.81 153.217 992.303C151.478 983.551 151.693 975.56 154.674 968.416Z" fill="#242938"/>
<path fill-rule="evenodd" clip-rule="evenodd" d="M74.6152 960.902C74.6152 962.014 74.5372 963.092 74.3862 964.135C74.2768 964.892 74.8016 965.594 75.5584 965.704C76.3151 965.813 77.0173 965.288 77.1267 964.532C77.297 963.354 77.3841 962.144 77.3842 960.903C77.3842 959.692 77.3067 958.547 77.1561 957.46C77.051 956.703 76.3519 956.174 75.5945 956.279C74.8371 956.384 74.3083 957.083 74.4133 957.84C74.5453 958.792 74.6152 959.81 74.6152 960.902ZM74.8427 968.342C74.135 968.052 73.3266 968.391 73.0371 969.099C72.2267 971.08 71.1174 972.93 69.7415 974.648C69.2635 975.245 69.3598 976.116 69.9565 976.594C70.5533 977.072 71.4246 976.976 71.9027 976.379C73.4322 974.47 74.6819 972.392 75.5999 970.148C75.8894 969.44 75.5504 968.631 74.8427 968.342ZM74.9498 953.935C75.6471 953.621 75.9581 952.801 75.6444 952.104C74.6507 949.895 73.2793 948.035 71.6541 946.41C71.1133 945.87 70.2367 945.87 69.6962 946.411C69.1556 946.952 69.1559 947.828 69.6968 948.369C71.1201 949.791 72.2826 951.38 73.1191 953.24C73.4328 953.937 74.2524 954.248 74.9498 953.935ZM68.0436 978.542C67.5467 977.961 66.6728 977.893 66.0916 978.39C64.4776 979.769 62.6633 981.036 60.6754 982.186C60.0135 982.569 59.7873 983.416 60.1702 984.077C60.5531 984.739 61.4 984.965 62.0619 984.583C64.1796 983.358 66.1348 981.995 67.8907 980.494C68.472 979.998 68.5404 979.124 68.0436 978.542ZM67.7931 944.897C68.2234 944.264 68.0598 943.403 67.4277 942.973C65.6414 941.757 63.7086 940.654 61.7281 939.583C61.0555 939.219 60.2154 939.47 59.8518 940.143C59.4882 940.815 59.7387 941.655 60.4114 942.019C62.3631 943.074 64.1993 944.125 65.8695 945.262C66.5016 945.692 67.3628 945.529 67.7931 944.897ZM69.1724 870.166C68.7657 869.519 67.9111 869.323 67.2636 869.73L68 870.902C67.2636 869.73 67.2637 869.73 67.2636 869.73L67.2621 869.731L67.2477 869.74L67.2062 869.766C67.1852 869.78 67.1585 869.797 67.1264 869.817C67.1034 869.832 67.0777 869.848 67.0492 869.867C66.9124 869.955 66.7124 870.085 66.4556 870.254C65.9419 870.593 65.2007 871.091 64.283 871.732C63.6562 872.17 63.5031 873.033 63.9411 873.66C64.3791 874.287 65.2422 874.44 65.869 874.002C66.7649 873.376 67.4857 872.892 67.9807 872.565C68.2281 872.402 68.4191 872.278 68.5472 872.196C68.6112 872.154 68.6596 872.124 68.6914 872.103L68.7266 872.081L68.7347 872.076L69.1724 870.166ZM51.5448 1043.92C51.8283 1044.63 52.6338 1044.98 53.3439 1044.7L64.9162 1040.08C65.6263 1039.79 65.9721 1038.99 65.6886 1038.28C65.4051 1037.57 64.5996 1037.22 63.8894 1037.51L55.3747 1040.9C55.4339 1040.76 55.4926 1040.61 55.5508 1040.47C55.8341 1039.76 55.488 1038.95 54.7778 1038.67C54.0676 1038.38 53.2622 1038.73 52.9789 1039.44C52.9385 1039.54 52.8979 1039.64 52.8571 1039.74L49.4961 1031.33C49.2126 1030.62 48.407 1030.27 47.6969 1030.55C46.9868 1030.84 46.6409 1031.64 46.9245 1032.35L51.5448 1043.92ZM57.4728 1014.04C57.8228 1016.36 57.9151 1018.71 57.7489 1021.17C57.6973 1021.93 58.2739 1022.59 59.0368 1022.65C59.7997 1022.7 60.46 1022.12 60.5116 1021.36C60.6908 1018.71 60.592 1016.15 60.2108 1013.62C60.0969 1012.87 59.3916 1012.35 58.6355 1012.46C57.8794 1012.57 57.3588 1013.28 57.4728 1014.04ZM58.5809 1025.81C57.8323 1025.65 57.0991 1026.13 56.9431 1026.88C56.4815 1029.1 55.8385 1031.43 55.0112 1033.91C54.7698 1034.64 55.1622 1035.42 55.8878 1035.66C56.6133 1035.91 57.3971 1035.51 57.6385 1034.79C58.4934 1032.22 59.1668 1029.79 59.6538 1027.45C59.8098 1026.7 59.3295 1025.97 58.5809 1025.81ZM61.6135 875.369C61.1476 874.763 60.2784 874.649 59.6721 875.115C57.9663 876.426 56.0759 877.945 54.1154 879.639C53.5367 880.139 53.4728 881.013 53.9726 881.592C54.4724 882.17 55.3466 882.234 55.9253 881.734C57.8403 880.08 59.6891 878.594 61.3592 877.311C61.9655 876.845 62.0794 875.976 61.6135 875.369ZM57.882 1009.35C58.6085 1009.11 59.0039 1008.33 58.7653 1007.6C58.0025 1005.28 57.0044 1002.95 55.7758 1000.54C55.4277 999.864 54.5937 999.594 53.9128 999.942C53.232 1000.29 52.9622 1001.12 53.3102 1001.81C54.4849 1004.1 55.4237 1006.31 56.1346 1008.47C56.3732 1009.2 57.1556 1009.59 57.882 1009.35ZM57.7313 985.297C57.4262 984.595 56.6104 984.274 55.9093 984.58C53.9186 985.446 51.8106 986.215 49.6068 986.886C48.8752 987.108 48.4626 987.882 48.6851 988.613C48.9076 989.345 49.6811 989.758 50.4126 989.535C52.7098 988.836 54.9184 988.031 57.0144 987.119C57.7155 986.813 58.0365 985.998 57.7313 985.297ZM57.7015 939.017C58.0609 938.342 57.8052 937.503 57.1303 937.144C55.2566 936.146 53.3841 935.117 51.5555 933.987C50.9051 933.585 50.0519 933.786 49.6499 934.436C49.2478 935.087 49.449 935.94 50.0994 936.342C52.0039 937.519 53.9381 938.581 55.8287 939.588C56.5036 939.947 57.3421 939.692 57.7015 939.017ZM52.3331 997.166C52.9844 996.766 53.1877 995.913 52.7871 995.262C51.5466 993.245 50.1593 991.155 48.6266 988.965C48.1881 988.339 47.3248 988.187 46.6984 988.625C46.0719 989.064 45.9196 989.927 46.3581 990.553C47.8671 992.709 49.2229 994.752 50.4285 996.712C50.8291 997.363 51.6818 997.567 52.3331 997.166ZM51.8359 883.532C51.3064 882.98 50.43 882.962 49.8783 883.491C48.1864 885.115 46.4996 886.847 44.8883 888.667C44.3814 889.239 44.4344 890.114 45.0068 890.621C45.5792 891.128 46.4543 891.075 46.9612 890.503C48.5158 888.747 50.1494 887.069 51.7956 885.489C52.3473 884.96 52.3653 884.083 51.8359 883.532ZM47.6432 933.072C48.1095 932.466 47.9962 931.596 47.3901 931.13C45.76 929.876 44.2119 928.489 42.7883 926.916C42.2752 926.349 41.3997 926.306 40.8327 926.819C40.2658 927.332 40.2221 928.207 40.7352 928.774C42.2865 930.488 43.961 931.986 45.7016 933.325C46.3077 933.791 47.1769 933.678 47.6432 933.072ZM46.0438 989.301C45.8784 988.555 45.1392 988.084 44.3926 988.249C42.2342 988.727 40.0104 989.119 37.7388 989.424C36.981 989.525 36.449 990.222 36.5506 990.98C36.6522 991.738 37.3489 992.27 38.1067 992.168C40.4521 991.854 42.7531 991.448 44.9914 990.953C45.7379 990.787 46.2091 990.048 46.0438 989.301ZM44.8229 986.034C45.4371 985.578 45.5657 984.711 45.1103 984.097C43.7016 982.197 42.1961 980.216 40.5942 978.14C40.1271 977.535 39.2577 977.423 38.6523 977.89C38.0469 978.357 37.9348 979.226 38.4018 979.832C39.9963 981.898 41.4907 983.865 42.8861 985.746C43.3415 986.361 44.2087 986.489 44.8229 986.034ZM43.1735 892.86C42.5603 892.403 41.6929 892.53 41.2362 893.143C39.7707 895.111 38.4339 897.158 37.3024 899.261C36.9402 899.935 37.1925 900.774 37.866 901.136C38.5394 901.499 39.3789 901.246 39.7411 900.573C40.7976 898.609 42.0575 896.676 43.4569 894.797C43.9136 894.184 43.7868 893.317 43.1735 892.86ZM39.3584 924.896C40.0021 924.483 40.1895 923.627 39.7769 922.983C39.2311 922.132 38.7161 921.232 38.2362 920.28C37.7243 919.263 37.3264 918.244 37.0314 917.222C36.8192 916.488 36.0516 916.064 35.317 916.277C34.5824 916.489 34.159 917.256 34.3712 917.991C34.7144 919.179 35.1754 920.358 35.7633 921.525C36.2864 922.564 36.8487 923.546 37.4457 924.477C37.8583 925.121 38.7146 925.308 39.3584 924.896ZM36.6762 975.353C37.278 974.881 37.3835 974.011 36.9118 973.409C36.1604 972.45 35.3909 971.471 34.6033 970.472C33.7637 969.406 32.9275 968.421 32.0959 967.516C31.5789 966.952 30.7031 966.915 30.1398 967.432C29.5765 967.949 29.539 968.825 30.056 969.388C30.8375 970.239 31.6287 971.17 32.4281 972.185C33.2147 973.184 33.9828 974.16 34.7324 975.117C35.2041 975.719 36.0743 975.824 36.6762 975.353ZM36.6914 903.779C35.9666 903.535 35.1815 903.926 34.9379 904.65C34.1312 907.05 33.6455 909.509 33.5949 911.993C33.5794 912.758 34.1865 913.39 34.9509 913.406C35.7154 913.421 36.3478 912.814 36.3634 912.05C36.4074 909.89 36.8305 907.71 37.5626 905.533C37.8062 904.808 37.4161 904.023 36.6914 903.779ZM33.8351 991.257C33.7803 990.494 33.1176 989.921 32.3549 989.975C30.1238 990.136 27.8628 990.216 25.5876 990.215C24.823 990.214 24.2028 990.834 24.2023 991.598C24.2019 992.363 24.8214 992.983 25.586 992.984C27.9269 992.985 30.2547 992.903 32.5535 992.737C33.3162 992.683 33.89 992.02 33.8351 991.257ZM27.7505 965.185C28.2183 964.58 28.1072 963.71 27.5024 963.243C25.0956 961.381 22.7363 960.142 20.4598 959.452C19.7281 959.23 18.955 959.643 18.7332 960.375C18.5113 961.107 18.9246 961.88 19.6564 962.101C21.5591 962.678 23.6219 963.742 25.8083 965.433C26.4132 965.901 27.2827 965.79 27.7505 965.185ZM21.4731 991.519C21.5166 990.756 20.933 990.102 20.1696 990.058C19.043 989.994 17.9161 989.91 16.7908 989.807C15.5174 989.689 14.355 989.477 13.2972 989.186C12.5599 988.983 11.7979 989.416 11.5951 990.154C11.3923 990.891 11.8255 991.653 12.5628 991.856C13.7891 992.193 15.1129 992.432 16.5364 992.564C17.6941 992.671 18.8533 992.757 20.0122 992.823C20.7756 992.866 21.4297 992.283 21.4731 991.519ZM15.4633 960.104C15.3346 959.35 14.6193 958.843 13.8656 958.972C11.0141 959.459 8.53866 960.852 6.5485 962.773C5.99837 963.304 5.98293 964.18 6.514 964.731C7.04507 965.281 7.92155 965.296 8.47167 964.765C10.1161 963.178 12.0995 962.083 14.3316 961.702C15.0853 961.573 15.592 960.858 15.4633 960.104ZM8.64484 988.755C9.11156 988.15 8.9989 987.28 8.39322 986.814C6.51297 985.365 5.23737 983.498 4.48883 981.421C4.22961 980.701 3.43632 980.328 2.71696 980.587C1.9976 980.847 1.62458 981.64 1.88379 982.359C2.79766 984.895 4.37345 987.212 6.7031 989.007C7.30878 989.474 8.17812 989.361 8.64484 988.755ZM4.64084 967.421C3.94867 967.096 3.12416 967.393 2.79923 968.086C1.65873 970.515 0.997369 973.215 0.90896 975.913C0.883923 976.678 1.48316 977.318 2.24739 977.343C3.01161 977.368 3.65143 976.768 3.67647 976.004C3.75232 973.689 4.32197 971.358 5.30578 969.262C5.6307 968.57 5.333 967.746 4.64084 967.421Z" fill="#E4E4E4"/>
<path fill-rule="evenodd" clip-rule="evenodd" d="M314.288 437.635C315.01 436.906 315.842 436.205 316.796 435.536L315.206 433.269C314.127 434.026 313.167 434.832 312.32 435.687L314.288 437.635ZM310.098 448.074C310.125 445.813 310.532 443.722 311.39 441.812L308.864 440.678C307.826 442.988 307.36 445.464 307.329 448.041L310.098 448.074ZM312.528 459.888C311.702 457.629 311.055 455.446 310.636 453.354L307.921 453.897C308.374 456.159 309.066 458.482 309.927 460.838L312.528 459.888ZM317.651 471.232C316.564 469.123 315.541 467.036 314.618 464.984L312.093 466.119C313.041 468.228 314.087 470.361 315.189 472.5L317.651 471.232ZM323.147 481.397C322.182 479.652 321.216 477.907 320.268 476.164L317.835 477.486C318.788 479.239 319.76 480.995 320.726 482.74C320.893 483.041 321.059 483.342 321.226 483.643L323.649 482.303C323.482 482.001 323.315 481.699 323.147 481.397ZM329.617 493.495C328.595 491.434 327.492 489.341 326.353 487.233L323.917 488.55C325.048 490.642 326.134 492.704 327.136 494.726L329.617 493.495ZM334.483 505.413C333.855 503.227 333.012 500.969 332.022 498.665L329.478 499.758C330.436 501.987 331.234 504.133 331.821 506.177L334.483 505.413ZM334.724 518.684C335.611 516.352 335.842 513.818 335.608 511.173L332.85 511.416C333.056 513.753 332.84 515.849 332.136 517.7L334.724 518.684ZM328.213 526.09C329.372 525.394 330.39 524.629 331.272 523.797L329.372 521.783C328.649 522.466 327.793 523.112 326.788 523.716C325.435 524.528 324.343 525.401 323.494 526.354L325.562 528.196C326.185 527.496 327.043 526.792 328.213 526.09ZM325.654 539.833C324.729 537.055 324.049 534.798 323.974 532.827L321.207 532.932C321.3 535.36 322.12 537.985 323.026 540.708L325.654 539.833ZM329.131 553.369C328.812 550.586 328.213 548.031 327.537 545.69L324.877 546.458C325.525 548.703 326.083 551.1 326.38 553.684L329.131 553.369ZM274.589 575.166C276.271 573.882 278.13 573.004 280.116 572.52L279.461 569.829C277.103 570.404 274.896 571.448 272.91 572.964L274.589 575.166ZM285.059 572.108C287.037 572.233 289.105 572.683 291.225 573.47L292.188 570.873C289.842 570.003 287.508 569.488 285.233 569.345L285.059 572.108ZM328.866 563.633C329.094 562.282 329.239 560.971 329.314 559.698L326.549 559.535C326.481 560.71 326.347 561.921 326.135 563.172C325.98 564.093 325.684 565.069 325.254 566.071L327.798 567.164C328.302 565.99 328.668 564.801 328.866 563.633ZM268.127 584.348C268.961 582.177 269.973 580.313 271.122 578.743L268.888 577.107C267.579 578.896 266.455 580.98 265.542 583.355L268.127 584.348ZM263.608 593.182C264.068 593.793 264.936 593.915 265.547 593.455L275.498 585.955C276.109 585.495 276.231 584.627 275.77 584.016C275.31 583.406 274.442 583.284 273.832 583.744L266.488 589.278L263.954 588.725C263.936 588.806 263.919 588.888 263.901 588.97L258.32 581.565C257.86 580.954 256.992 580.832 256.381 581.292C255.77 581.752 255.649 582.62 256.109 583.231L263.608 593.182ZM295.87 575.694C296.776 576.226 297.684 576.816 298.591 577.466C299.625 578.205 300.675 578.812 301.737 579.295L302.884 576.775C301.992 576.369 301.096 575.853 300.203 575.214C299.23 574.518 298.252 573.882 297.271 573.306L295.87 575.694ZM319.667 576.975C321.642 575.579 323.392 573.893 324.827 572.078L322.655 570.36C321.378 571.976 319.819 573.477 318.069 574.714L319.667 576.975ZM307.409 580.743C309.907 580.913 312.335 580.494 314.595 579.665L313.642 577.065C311.7 577.777 309.66 578.121 307.597 577.981L307.409 580.743Z" fill="#E4E4E4"/>
<path fill-rule="evenodd" clip-rule="evenodd" d="M220.003 14.2556C218.975 14.7695 217.933 15.295 216.874 15.8314L218.126 18.3014C219.181 17.7668 220.219 17.2436 221.242 16.7322L220.003 14.2556ZM231.416 8.80364C229.346 9.72906 227.228 10.7207 225.049 11.7726L226.253 14.2663C228.413 13.2234 230.506 12.2435 232.546 11.3316L231.416 8.80364ZM243.244 4.13758C241.062 4.85931 238.856 5.67924 236.608 6.58846L237.646 9.15558C239.848 8.26521 241.997 7.46666 244.113 6.76646L243.244 4.13758ZM255.694 1.1273C253.355 1.46467 251.032 1.9368 248.7 2.53254L249.385 5.21537C251.629 4.64204 253.855 4.1901 256.089 3.86793L255.694 1.1273ZM268.536 0.67388C266.108 0.497095 263.733 0.468918 261.39 0.580149L261.522 3.34603C263.753 3.24009 266.016 3.26679 268.335 3.43557L268.536 0.67388ZM307.616 118.611C307.742 119.366 308.455 119.875 309.209 119.75L321.501 117.705C322.255 117.579 322.765 116.866 322.639 116.112C322.514 115.357 321.801 114.848 321.046 114.973L311.934 116.489C311.976 116.424 312.017 116.359 312.058 116.294L309.8 114.866L308.303 105.865C308.177 105.111 307.464 104.601 306.71 104.727C305.955 104.852 305.446 105.566 305.571 106.32L307.616 118.611ZM281.178 2.82048C278.787 2.19968 276.469 1.70909 274.207 1.34286L273.764 4.07626C275.935 4.42781 278.169 4.90008 280.482 5.50064L281.178 2.82048ZM314.796 111.448C315.877 109.281 316.757 107.132 317.457 105.003L314.826 104.138C314.169 106.138 313.34 108.163 312.318 110.213L314.796 111.448ZM318.872 99.5717C319.327 97.2239 319.575 94.9056 319.649 92.6179L316.881 92.5289C316.812 94.6754 316.579 96.8473 316.153 99.0454L318.872 99.5717ZM293.265 6.81406C290.977 5.91281 288.763 5.11412 286.613 4.41429L285.756 7.04736C287.849 7.72844 290.01 8.50786 292.25 9.39038L293.265 6.81406ZM302.238 41.1415C301.374 38.989 300.647 36.9039 300.109 34.8815L297.433 35.5925C298.007 37.7537 298.775 39.9493 299.669 42.1738L302.238 41.1415ZM307.297 52.1553C306.278 50.0773 305.292 48.0481 304.375 46.06L301.861 47.2195C302.792 49.2395 303.791 51.2937 304.81 53.3737L307.297 52.1553ZM299.176 29.777C299.08 28.695 299.06 27.6363 299.124 26.5996C299.197 25.4099 299.371 24.2811 299.633 23.212L296.944 22.553C296.642 23.7849 296.443 25.0774 296.36 26.4296C296.287 27.6172 296.311 28.8149 296.417 30.021L299.176 29.777ZM319.491 87.0298C319.289 84.6995 318.923 82.4061 318.431 80.1508L315.726 80.7416C316.196 82.8936 316.542 85.0693 316.733 87.2696L319.491 87.0298ZM312.582 63.2292C311.643 61.1281 310.665 59.0639 309.685 57.0402L307.193 58.2469C308.167 60.2575 309.131 62.2937 310.054 64.3588L312.582 63.2292ZM317.017 74.7902C316.339 72.5848 315.562 70.4168 314.719 68.2876L312.144 69.306C312.965 71.3802 313.717 73.479 314.37 75.6032L317.017 74.7902ZM303.857 11.4594C302.017 10.5786 300.225 9.75522 298.477 8.98768L297.364 11.5231C298.793 12.1506 300.254 12.8169 301.749 13.5232C300.858 14.5155 300.047 15.5955 299.339 16.764L301.707 18.1988C302.903 16.2245 304.452 14.5202 306.226 13.0881L304.488 10.9332C304.275 11.1048 304.065 11.2802 303.857 11.4594ZM313.023 16.1064C311.966 15.543 310.923 14.9962 309.895 14.4658L308.626 16.9266C309.642 17.4511 310.674 17.9923 311.722 18.5503C312.511 18.9708 313.504 19.4136 314.616 19.835L315.597 17.2455C314.567 16.8553 313.686 16.4592 313.023 16.1064ZM310.919 10.1463C313.064 9.11786 315.323 8.40081 317.531 7.9944L317.03 5.27113C314.587 5.72071 312.094 6.51229 309.722 7.64954L310.919 10.1463ZM325.582 19.2218C323.859 19.2758 321.911 19.0158 319.998 18.5769L319.379 21.2758C321.435 21.7474 323.632 22.0532 325.668 21.9894L325.582 19.2218ZM323.037 7.63684C325.633 7.80688 327.768 8.49314 329.196 9.5653L330.858 7.351C328.861 5.85118 326.145 5.0655 323.218 4.87376L323.037 7.63684ZM330.703 16.5968C330.443 17.3174 330.007 17.8433 329.421 18.2377L330.966 20.5355C332.015 19.8298 332.838 18.8391 333.308 17.536C333.832 16.0817 334.075 14.7059 334.038 13.4207L331.271 13.4993C331.296 14.378 331.132 15.4069 330.703 16.5968Z" fill="#E4E4E4"/>
<path fill-rule="evenodd" clip-rule="evenodd" d="M277.496 1307.36C277.496 1307.36 277.496 1307.36 278.5 1306.4C279.505 1305.45 279.506 1305.45 279.507 1305.45H279.51L279.52 1305.47L279.559 1305.51C279.592 1305.54 279.64 1305.59 279.702 1305.66C279.827 1305.8 280.008 1306 280.241 1306.26C280.705 1306.78 281.372 1307.55 282.191 1308.54C283.829 1310.52 286.078 1313.4 288.536 1317.01C293.445 1324.23 299.215 1334.39 302.582 1346.15C305.951 1357.91 306.926 1371.3 302.167 1384.91C297.638 1397.85 287.962 1410.85 270.503 1422.74L279.473 1424.68C280.22 1424.84 280.695 1425.58 280.534 1426.33C280.372 1427.07 279.636 1427.55 278.888 1427.39L266.709 1424.76C265.961 1424.59 265.486 1423.86 265.648 1423.11L268.278 1410.93C268.44 1410.18 269.177 1409.71 269.924 1409.87C270.671 1410.03 271.146 1410.77 270.985 1411.51L269.073 1420.37C286.057 1408.77 295.266 1396.25 299.554 1383.99C304.076 1371.06 303.176 1358.27 299.92 1346.91C296.661 1335.53 291.056 1325.64 286.247 1318.57C283.845 1315.04 281.649 1312.23 280.056 1310.3C279.26 1309.34 278.615 1308.6 278.172 1308.1C277.95 1307.85 277.779 1307.66 277.664 1307.54C277.607 1307.47 277.564 1307.43 277.535 1307.4L277.504 1307.36H277.497H277.496Z" fill="#242938"/>
</svg>
