<svg width="482" height="374" viewBox="0 0 482 374" fill="none" xmlns="http://www.w3.org/2000/svg">
<path d="M23.1822 197.231C10.379 193.8 2.78105 180.64 6.21166 167.837L44.9697 23.19C48.8874 8.56886 65.1969 1.1812 78.7714 7.87895L442.697 187.443C452.964 192.508 458.223 204.119 455.26 215.177L437.015 283.27C433.584 296.074 420.424 303.672 407.621 300.241L23.1822 197.231Z" fill="#89CBD7" style="mix-blend-mode:multiply"/>
<path d="M96.0818 313.194H82.9958L67.7615 294.786L63.1716 299.474V313.194H53.0642L53.0642 267.687H63.1716V286.974L81.3845 267.687H95.2517L74.2556 288.585L96.0818 313.194Z" fill="#242938"/>
<path d="M150.379 267.687L130.75 322.081C129.285 326.02 127.153 328.738 124.353 330.235C121.554 331.733 118.217 332.481 114.344 332.481C113.009 332.481 111.577 332.351 110.047 332.091C108.517 331.83 106.922 331.391 105.261 330.772L107.361 321.495C108.761 322.016 110.047 322.374 111.219 322.569C112.39 322.797 113.432 322.911 114.344 322.911C117.371 322.911 119.438 321.544 120.545 318.81L122.351 314.415L104.969 267.687H115.467L127.967 302.11L139.539 267.687H150.379Z" fill="#242938"/>
<path d="M162.244 267.687H172.351V271.788C174.272 270.063 176.209 268.777 178.162 267.931C180.148 267.052 182.41 266.612 184.949 266.612C187.879 266.612 190.597 267.215 193.103 268.419C195.61 269.591 197.758 271.235 199.549 273.351C201.339 275.434 202.755 277.957 203.797 280.919C204.838 283.849 205.359 287.039 205.359 290.489C205.359 293.972 204.838 297.179 203.797 300.108C202.755 303.038 201.339 305.561 199.549 307.677C197.758 309.76 195.61 311.388 193.103 312.56C190.597 313.731 187.879 314.317 184.949 314.317C182.41 314.317 180.148 313.862 178.162 312.95C176.209 312.039 174.272 310.72 172.351 308.995V331.407H162.244V267.687ZM172.351 300.987C173.556 302.322 175.086 303.364 176.941 304.112C178.829 304.828 180.636 305.187 182.361 305.187C186.17 305.187 189.262 303.836 191.638 301.134C194.047 298.432 195.252 294.884 195.252 290.489C195.252 286.095 194.047 282.53 191.638 279.796C189.262 277.062 186.17 275.694 182.361 275.694C180.636 275.694 178.829 276.052 176.941 276.769C175.086 277.452 173.556 278.461 172.351 279.796V300.987Z" fill="#242938"/>
<path d="M258.24 306.7C255.31 309.63 252.218 311.632 248.963 312.706C245.74 313.78 242.241 314.317 238.465 314.317C234.656 314.317 231.189 313.748 228.064 312.608C224.972 311.469 222.335 309.874 220.154 307.823C218.006 305.74 216.345 303.233 215.174 300.304C214.034 297.374 213.465 294.103 213.465 290.489C213.465 287.039 214.034 283.849 215.174 280.919C216.345 277.957 217.908 275.434 219.861 273.351C221.847 271.235 224.174 269.591 226.844 268.419C229.513 267.215 232.345 266.612 235.34 266.612C238.465 266.612 241.183 267.263 243.494 268.565C245.805 269.868 247.482 271.772 248.523 274.278V267.687H257.556V288.878H248.523C248.523 284.874 247.416 281.684 245.203 279.308C243.022 276.899 240.174 275.694 236.658 275.694C235.258 275.694 233.777 275.987 232.215 276.573C230.685 277.127 229.269 278.006 227.967 279.21C226.697 280.414 225.639 281.944 224.793 283.8C223.946 285.655 223.523 287.885 223.523 290.489C223.523 293.028 223.93 295.226 224.744 297.081C225.558 298.904 226.616 300.418 227.918 301.622C229.252 302.794 230.815 303.689 232.605 304.308C234.428 304.894 236.3 305.187 238.22 305.187C241.508 305.187 244.357 304.682 246.765 303.673C249.207 302.631 251.306 301.264 253.064 299.571L258.24 306.7Z" fill="#242938"/>
<path d="M299.939 299.181C299.939 303.803 298.474 307.302 295.545 309.679C292.615 312.022 288.513 313.194 283.24 313.194H268.054V267.687H278.113V285.313H283.338C288.546 285.313 292.615 286.469 295.545 288.78C298.474 291.059 299.939 294.526 299.939 299.181ZM289.832 299.278C289.832 297.618 289.246 296.397 288.074 295.616C286.902 294.802 285.323 294.396 283.338 294.396H278.113V304.112H283.338C285.323 304.112 286.902 303.705 288.074 302.892C289.246 302.078 289.832 300.873 289.832 299.278ZM305.408 267.687H315.515V313.194H305.408V267.687Z" fill="#242938"/>
<path d="M370.301 285.606C369.78 287.983 369.031 290.424 368.054 292.931C367.11 295.437 365.873 297.862 364.344 300.206L372.01 307.286L365.711 314.513L358.435 307.384C356.092 309.532 353.52 311.225 350.72 312.462C347.921 313.699 344.829 314.317 341.443 314.317C338.774 314.317 336.267 313.862 333.924 312.95C331.58 312.039 329.562 310.802 327.869 309.239C326.176 307.677 324.842 305.854 323.865 303.771C322.888 301.655 322.4 299.36 322.4 296.886C322.4 292.621 323.181 289.138 324.744 286.437C326.339 283.735 328.227 281.424 330.408 279.503C328.552 277.159 327.12 274.815 326.111 272.472C325.102 270.095 324.597 267.54 324.597 264.806C324.597 262.332 325.037 260.086 325.916 258.067C326.795 256.017 327.95 254.275 329.383 252.843C330.815 251.41 332.491 250.32 334.412 249.571C336.365 248.79 338.432 248.399 340.613 248.399C342.827 248.399 344.894 248.741 346.814 249.425C348.767 250.076 350.46 251.02 351.892 252.257C353.325 253.494 354.431 254.991 355.213 256.749C356.026 258.507 356.433 260.525 356.433 262.804C356.433 264.985 356.043 266.954 355.261 268.712C354.513 270.437 353.52 272 352.283 273.399C351.046 274.799 349.663 276.085 348.133 277.257C346.603 278.429 345.073 279.535 343.543 280.577L357.41 293.712C358.224 292.084 358.924 290.392 359.51 288.634C360.128 286.876 360.665 285.102 361.121 283.312L370.301 285.606ZM342.127 305.187C344.047 305.187 345.821 304.828 347.449 304.112C349.109 303.364 350.639 302.354 352.039 301.085L336.707 286.192H336.609C335.405 287.462 334.412 288.878 333.631 290.44C332.882 292.003 332.508 293.761 332.508 295.714C332.508 298.513 333.419 300.792 335.242 302.55C337.097 304.308 339.392 305.187 342.127 305.187ZM334.705 264.806C334.705 266.596 334.868 268.207 335.193 269.64C335.551 271.072 336.332 272.618 337.537 274.278C338.741 273.497 339.864 272.716 340.906 271.935C341.98 271.121 342.908 270.242 343.689 269.298C344.503 268.354 345.138 267.345 345.594 266.271C346.082 265.164 346.326 263.943 346.326 262.608C346.326 261.078 345.805 259.841 344.763 258.897C343.722 257.953 342.469 257.481 341.004 257.481C339.083 257.481 337.553 258.181 336.414 259.581C335.275 260.981 334.705 262.722 334.705 264.806Z" fill="#242938"/>
<path d="M96.0818 373.194H82.9958L67.7615 354.786L63.1716 359.474V373.194H53.0642V327.687H63.1716L63.1716 346.974L81.3845 327.687H95.2517L74.2556 348.585L96.0818 373.194Z" fill="#242938"/>
<path d="M148.377 373.194H138.269V354.396H117.761V373.194H107.654V327.687H117.761V345.313H138.269V327.687H148.377V373.194Z" fill="#242938"/>
<path d="M162.244 327.687H172.351V358.985L190.271 327.687H202.967V373.194H192.859V340.089L173.963 373.194H162.244V327.687Z" fill="#242938"/>
<path d="M216.834 327.687H259.949V336.183H226.941V373.194H216.834V327.687Z" fill="#242938"/>
<path d="M271.424 327.687H281.531V358.985L299.451 327.687H312.146V373.194H302.039V340.089L283.142 373.194H271.424V327.687Z" fill="#242938"/>
</svg>
