<svg width="12" height="22" viewBox="0 0 12 22" fill="none" xmlns="http://www.w3.org/2000/svg">
<path d="M9.22602 5.2833C10.7315 5.26423 11.182 5.28292 11.1862 5.28292C11.251 5.28827 11.3194 5.25964 11.3687 5.20965C11.4183 5.15966 11.4469 5.0902 11.449 5.01693L11.5409 1.29803C11.5409 1.0267 11.5409 1.0267 10.6152 1.01258L10.5247 1.01106C10.3137 1.00838 10.101 1.00228 9.88717 0.995792C8.90197 0.966789 7.88436 0.936644 6.91642 1.24384C5.91184 1.56288 5.09959 2.17729 4.56735 3.02106C3.99216 3.93313 3.67549 5.16501 3.67549 6.48962V9.11823H0.803012C0.665993 9.11823 0.553985 9.23692 0.550457 9.38536L0.460992 13.4004C0.459586 13.4737 0.485295 13.5447 0.532495 13.5973C0.579695 13.65 0.644504 13.6801 0.712134 13.6805L3.64309 13.6981L3.7382 21.7301C3.73996 21.8797 3.85267 22.0002 3.99075 22.0002H7.61596C7.75438 22.0002 7.8671 21.8793 7.86852 21.7293L7.94601 13.6805H10.6875C10.8136 13.6805 10.9199 13.5798 10.9375 13.4447L11.4465 9.49756C11.4564 9.42009 11.4353 9.34147 11.3884 9.28194C11.3415 9.22241 11.2732 9.18768 11.201 9.18615L7.93226 9.12318L7.94882 6.30605C7.94881 6.20301 7.98544 5.29895 9.22602 5.2833Z" fill="#DBDADA"/>
</svg>
