<svg width="419" height="257" viewBox="0 0 419 257" fill="none" xmlns="http://www.w3.org/2000/svg">
<path d="M395 -8.07108e-07C408.255 -3.61354e-07 419 10.7452 419 24L419 141C419 154.255 408.255 165 395 165L25.0002 165C11.7454 165 1.00024 154.255 1.00024 141L1.00024 24C1.00024 10.7452 11.7454 -1.36958e-05 25.0002 -1.325e-05L395 -8.07108e-07Z" fill="#FED230"/>
<path d="M0.392578 192.351H10.5V196.453C12.4206 194.727 14.3574 193.442 16.3105 192.595C18.2962 191.716 20.5586 191.277 23.0977 191.277C26.0273 191.277 28.7454 191.879 31.252 193.083C33.7585 194.255 35.9069 195.899 37.6973 198.015C39.4876 200.098 40.9036 202.621 41.9453 205.583C42.987 208.513 43.5078 211.703 43.5078 215.154C43.5078 218.637 42.987 221.843 41.9453 224.773C40.9036 227.703 39.4876 230.225 37.6973 232.341C35.9069 234.425 33.7585 236.052 31.252 237.224C28.7454 238.396 26.0273 238.982 23.0977 238.982C20.5586 238.982 18.2962 238.526 16.3105 237.615C14.3574 236.703 12.4206 235.385 10.5 233.66L10.5 256.072H0.392578L0.392578 192.351ZM10.5 225.652C11.7044 226.986 13.2344 228.028 15.0898 228.777C16.9779 229.493 18.7845 229.851 20.5098 229.851C24.3184 229.851 27.4108 228.5 29.7871 225.798C32.196 223.097 33.4004 219.548 33.4004 215.154C33.4004 210.759 32.196 207.195 29.7871 204.46C27.4108 201.726 24.3184 200.359 20.5098 200.359C18.7845 200.359 16.9779 200.717 15.0898 201.433C13.2344 202.117 11.7044 203.126 10.5 204.46L10.5 225.652Z" fill="black"/>
<path d="M52.3945 224.773C52.3945 222.104 53.1107 219.776 54.543 217.791C55.9753 215.772 57.847 214.096 60.1582 212.761C62.502 211.427 65.1712 210.434 68.166 209.783C71.1934 209.099 74.2695 208.757 77.3945 208.757C79.1198 208.757 80.6009 208.79 81.8379 208.855C83.0749 208.92 84.3281 209.018 85.5977 209.148V207.341C85.5977 204.965 84.6699 203.191 82.8145 202.019C80.9915 200.847 78.5827 200.261 75.5879 200.261C72.8535 200.261 70.0703 200.652 67.2383 201.433C64.4062 202.182 61.7207 203.289 59.1816 204.753L55.0801 196.843C58.0749 195.118 61.2812 193.767 64.6992 192.791C68.1497 191.781 71.7793 191.277 75.5879 191.277C78.0619 191.277 80.487 191.554 82.8633 192.107C85.2721 192.66 87.4206 193.572 89.3086 194.841C91.2292 196.111 92.7591 197.771 93.8984 199.822C95.0378 201.84 95.6074 204.347 95.6074 207.341V237.859H85.5977V231.169C84.0026 233.643 81.6426 235.564 78.5176 236.931C75.4251 238.298 72.0885 238.982 68.5078 238.982C66.2943 238.982 64.1947 238.673 62.209 238.054C60.2559 237.468 58.5632 236.573 57.1309 235.369C55.6986 234.164 54.543 232.683 53.6641 230.925C52.8177 229.135 52.3945 227.084 52.3945 224.773ZM71.0957 229.949C73.0814 229.949 74.9369 229.705 76.6621 229.216C78.4199 228.695 79.9661 227.996 81.3008 227.117C82.6354 226.205 83.6771 225.115 84.4258 223.845C85.207 222.576 85.5977 221.176 85.5977 219.646V217.937C84.0026 217.677 82.5052 217.53 81.1055 217.498C79.7057 217.465 78.4688 217.449 77.3945 217.449C72.4466 217.449 68.7031 218.1 66.1641 219.402C63.6576 220.704 62.4043 222.315 62.4043 224.236C62.4043 228.044 65.3014 229.949 71.0957 229.949Z" fill="black"/>
<path d="M117.873 216.179C117.873 220.313 118.964 223.634 121.145 226.14C123.358 228.614 126.369 229.851 130.178 229.851C133.791 229.851 136.753 228.614 139.064 226.14C141.408 223.634 142.58 220.313 142.58 216.179C142.58 211.98 141.473 208.643 139.26 206.169C137.079 203.695 134.051 202.458 130.178 202.458C126.044 202.458 122.951 203.695 120.9 206.169C118.882 208.643 117.873 211.98 117.873 216.179ZM107.18 206.072C107.18 201.189 107.684 196.729 108.693 192.693C109.735 188.656 111.184 185.19 113.039 182.292C114.927 179.395 117.157 177.133 119.729 175.505C122.3 173.878 125.148 173.064 128.273 173.064C129.803 173.064 131.073 173.21 132.082 173.503C133.091 173.796 133.986 174.154 134.768 174.578C135.581 174.968 136.33 175.31 137.014 175.603C137.73 175.896 138.592 176.042 139.602 176.042C140.936 176.042 142.059 175.815 142.971 175.359C143.915 174.903 145.054 174.138 146.389 173.064L150.979 179.753C149.774 181.218 148.146 182.488 146.096 183.562C144.077 184.636 141.913 185.173 139.602 185.173C138.039 185.173 136.786 185.027 135.842 184.734C134.93 184.408 134.084 184.05 133.303 183.66C132.554 183.269 131.805 182.927 131.057 182.634C130.34 182.309 129.413 182.146 128.273 182.146C126.743 182.146 125.327 182.537 124.025 183.318C122.723 184.067 121.568 185.271 120.559 186.931C119.582 188.559 118.801 190.658 118.215 193.23C117.661 195.769 117.385 198.878 117.385 202.556C118.654 199.561 120.428 197.283 122.707 195.72C125.018 194.158 127.541 193.376 130.275 193.376C133.465 193.376 136.428 193.865 139.162 194.841C141.896 195.785 144.257 197.218 146.242 199.138C148.26 201.026 149.839 203.386 150.979 206.218C152.118 209.05 152.688 212.371 152.688 216.179C152.688 219.369 152.118 222.364 150.979 225.164C149.839 227.963 148.26 230.388 146.242 232.439C144.257 234.457 141.896 236.052 139.162 237.224C136.428 238.396 133.465 238.982 130.275 238.982C122.626 238.982 116.864 236.313 112.99 230.974C109.117 225.636 107.18 217.335 107.18 206.072Z" fill="black"/>
<path d="M208.449 215.154C208.449 218.702 207.88 221.925 206.74 224.822C205.633 227.719 204.022 230.225 201.906 232.341C199.823 234.425 197.316 236.052 194.387 237.224C191.457 238.396 188.186 238.982 184.572 238.982C181.024 238.982 177.785 238.396 174.855 237.224C171.926 236.052 169.403 234.425 167.287 232.341C165.204 230.225 163.592 227.719 162.453 224.822C161.346 221.925 160.793 218.702 160.793 215.154C160.793 211.703 161.346 208.513 162.453 205.583C163.592 202.621 165.204 200.082 167.287 197.966C169.403 195.818 171.926 194.174 174.855 193.035C177.785 191.863 181.024 191.277 184.572 191.277C188.186 191.277 191.457 191.863 194.387 193.035C197.316 194.174 199.823 195.818 201.906 197.966C204.022 200.082 205.633 202.621 206.74 205.583C207.88 208.513 208.449 211.703 208.449 215.154ZM198.391 215.154C198.391 213.103 198.065 211.166 197.414 209.343C196.796 207.488 195.884 205.909 194.68 204.607C193.475 203.305 192.01 202.279 190.285 201.531C188.592 200.75 186.688 200.359 184.572 200.359C182.424 200.359 180.503 200.75 178.811 201.531C177.118 202.279 175.686 203.305 174.514 204.607C173.342 205.909 172.43 207.488 171.779 209.343C171.161 211.166 170.852 213.103 170.852 215.154C170.852 217.302 171.161 219.255 171.779 221.013C172.43 222.771 173.342 224.317 174.514 225.652C175.686 226.986 177.118 228.028 178.811 228.777C180.503 229.493 182.424 229.851 184.572 229.851C186.688 229.851 188.592 229.493 190.285 228.777C192.01 228.028 193.475 226.986 194.68 225.652C195.884 224.317 196.796 222.771 197.414 221.013C198.065 219.255 198.391 217.302 198.391 215.154Z" fill="black"/>
<path d="M261.77 215.544H252.736V201.482H244.143V228.777H254.25V237.859H223.977V228.777H234.035V201.482H225.344V215.544H216.359V192.351H261.77V215.544Z" fill="black"/>
<path d="M270.754 224.773C270.754 222.104 271.47 219.776 272.902 217.791C274.335 215.772 276.206 214.096 278.518 212.761C280.861 211.427 283.531 210.434 286.525 209.783C289.553 209.099 292.629 208.757 295.754 208.757C297.479 208.757 298.96 208.79 300.197 208.855C301.434 208.92 302.688 209.018 303.957 209.148V207.341C303.957 204.965 303.029 203.191 301.174 202.019C299.351 200.847 296.942 200.261 293.947 200.261C291.213 200.261 288.43 200.652 285.598 201.433C282.766 202.182 280.08 203.289 277.541 204.753L273.439 196.843C276.434 195.118 279.641 193.767 283.059 192.791C286.509 191.781 290.139 191.277 293.947 191.277C296.421 191.277 298.846 191.554 301.223 192.107C303.632 192.66 305.78 193.572 307.668 194.841C309.589 196.111 311.118 197.771 312.258 199.822C313.397 201.84 313.967 204.347 313.967 207.341V237.859H303.957V231.169C302.362 233.643 300.002 235.564 296.877 236.931C293.785 238.298 290.448 238.982 286.867 238.982C284.654 238.982 282.554 238.673 280.568 238.054C278.615 237.468 276.923 236.573 275.49 235.369C274.058 234.164 272.902 232.683 272.023 230.925C271.177 229.135 270.754 227.084 270.754 224.773ZM289.455 229.949C291.441 229.949 293.296 229.705 295.021 229.216C296.779 228.695 298.326 227.996 299.66 227.117C300.995 226.205 302.036 225.115 302.785 223.845C303.566 222.576 303.957 221.176 303.957 219.646V217.937C302.362 217.677 300.865 217.53 299.465 217.498C298.065 217.465 296.828 217.449 295.754 217.449C290.806 217.449 287.062 218.1 284.523 219.402C282.017 220.704 280.764 222.315 280.764 224.236C280.764 228.044 283.661 229.949 289.455 229.949Z" fill="black"/>
</svg>
