<svg width="274" height="220" viewBox="0 0 274 220" fill="none" xmlns="http://www.w3.org/2000/svg">
<path d="M137.137 219.102H69.8911V199.121H92.02V99.0043H69.8911V78.9164H137.137V99.0043H114.256V199.121H137.137V219.102ZM273.133 130.049H253.26V99.0043H234.354V199.121H256.59V219.102H189.989V199.121H212.118V99.0043H192.997V130.049H173.231V78.9164H273.133V130.049Z" fill="#242938"/>
<path d="M43.8619 129.696L34.127 133.537L32.6615 129.929L42.1502 126.218C44.8103 125.205 45.6832 123.923 44.7559 121.749C43.8964 119.613 42.4971 119.116 39.5908 120.258L30.2746 123.976L28.8091 120.368L38.3347 116.588C42.6757 114.909 45.9063 116.402 47.6254 120.675C49.3503 124.775 48.0983 128.047 43.8619 129.696Z" fill="#242938"/>
<path d="M27.1595 113.058L26.7955 108.556L37.5171 101.123L26.2931 102.047L26.0293 98.653L43.0748 97.2065L43.4255 101.087L31.8855 109.216L44.0458 108.188L44.3096 111.581L27.1595 113.058Z" fill="#242938"/>
<path d="M37.8782 94.6439L38.6245 91.0091C40.1403 91.1307 41.5013 90.729 42.0337 88.2955C42.3331 86.6138 41.6844 85.3825 40.347 85.0944C39.0097 84.8062 38.4007 85.4414 37.5232 87.8629C36.1369 92.028 34.4264 93.5572 31.271 92.8953C28.4238 92.3131 26.7562 89.5615 27.4716 85.8221C28.2238 82.0149 30.3589 80.1896 33.7665 80.5495L33.0939 84.0487C31.5412 83.9948 30.6182 84.7226 30.3188 86.4044C30.0194 88.0862 30.6061 89.108 31.74 89.2855C32.9417 89.4998 33.6127 89.0741 34.5271 86.5848C35.8706 82.66 37.3525 80.7429 40.853 81.4169C43.8728 82.005 45.7068 84.9349 44.9487 88.9145C43.8956 93.4365 41.3167 95.1084 37.8782 94.6439Z" fill="#242938"/>
<g filter="url(#filter0_d)">
<path d="M38.3521 77.773L38.2164 77.6992C33.5984 75.3634 32.0386 70.4746 34.2934 66.167C36.1117 62.5003 39.3188 60.6431 43.3073 62.1973L41.5628 65.7283C39.5471 65.0714 38.1124 65.6087 37.148 67.5437C35.9255 69.9532 37.0504 72.4096 40.2072 74.0386L40.3429 74.1123C43.4997 75.7413 46.0742 75.209 47.3705 72.6639C48.3349 70.7289 48.049 68.9922 46.2295 67.6514L47.9003 64.2559C51.4832 66.5558 52.0492 70.2015 50.1572 74.0037C47.4291 79.0202 43.0379 80.1457 38.3521 77.773Z" fill="#242938"/>
<path d="M46.8566 67.5096L48.0938 64.9952C49.4993 66.0284 50.3016 67.2889 50.5926 68.6696C50.9158 70.2032 50.6208 71.9465 49.7136 73.7729C48.3968 76.1906 46.7116 77.6164 44.8442 78.1807C42.9744 78.7458 40.8415 78.4716 38.5844 77.3303L38.4553 77.2601L38.4488 77.2565L38.4421 77.2531C34.0626 75.038 32.6162 70.4494 34.7364 66.3989L34.7365 66.399L34.7413 66.3892C35.6155 64.6265 36.8014 63.3434 38.2017 62.6757C39.4621 62.0748 40.941 61.9506 42.6097 62.4806L41.3002 65.131C40.3853 64.8952 39.5367 64.8937 38.7746 65.2002C37.8953 65.5539 37.2184 66.2823 36.7012 67.3192C36.0255 68.6521 35.9906 70.0296 36.5824 71.2957C37.1659 72.5441 38.334 73.6337 39.9731 74.4805L40.104 74.5517L40.1039 74.5518L40.1136 74.5568C41.7538 75.4032 43.3059 75.7216 44.6554 75.4432C46.0244 75.1608 47.1087 74.2796 47.816 72.8909L47.818 72.887C48.3345 71.8506 48.5413 70.8161 48.3331 69.8315C48.1484 68.9576 47.6487 68.1793 46.8566 67.5096Z" stroke="black"/>
</g>
<path d="M41.7861 54.1671L44.4374 51.3927L49.4534 56.2287L54.2517 51.284L49.2357 46.448L51.887 43.6736L64.2265 55.5668L61.5752 58.3412L56.4914 53.4683L51.6931 58.4129L56.7769 63.2858L54.1256 66.0602L41.7861 54.1671Z" fill="#242938"/>
<path d="M61.3792 46.9036L61.2805 46.762C58.8772 42.2929 60.4287 37.3392 64.8981 34.9387C69.4721 32.5072 74.2981 33.8142 76.7323 38.388L76.8311 38.5296C79.2343 42.9987 77.8922 47.8906 73.1766 50.4207C68.5288 52.9878 63.7146 51.3359 61.3792 46.9036ZM73.3098 40.4795L73.2111 40.338C71.6541 37.3831 69.034 36.2217 66.3931 37.6842C63.789 39.0788 63.2448 41.8572 64.8326 44.9168L64.9314 45.0583C66.5871 48.1547 69.3547 49.045 71.8172 47.749C74.4213 46.3543 74.9346 43.4713 73.3098 40.4795Z" fill="#242938"/>
<path d="M80.1133 37.5037L80.0514 37.2943C79.1876 32.2569 82.2681 28.047 87.2696 27.2535C92.3081 26.3921 96.4955 29.1965 97.4272 34.2707L97.4891 34.4801C98.3529 39.5175 95.5127 43.7703 90.3018 44.6256C84.9861 45.5119 81.0139 42.4733 80.1133 37.5037ZM93.5285 35.137L93.4666 34.9277C92.8888 31.6269 90.7788 29.6889 87.8593 30.2093C84.9397 30.7297 83.5447 33.1332 84.1535 36.5387L84.2154 36.748C84.7873 40.2213 87.1804 41.9619 89.8905 41.5033C92.6685 41.0816 94.1373 38.5425 93.5285 35.137Z" fill="#242938"/>
<path d="M102.468 26.2954L106.288 26.7041L104.842 40.6748L111.762 41.3637L111.452 44.3574L100.644 43.2229L102.468 26.2954Z" fill="#242938"/>
<path d="M118.656 28.687L129.172 32.2978L128.141 35.1629L121.243 32.8172L119.974 36.6064L125.503 38.5594L124.583 41.2211L119.053 39.2682L117.673 43.2608L124.91 45.791L123.879 48.6561L112.987 44.9286L118.656 28.687Z" fill="#242938"/>
<path d="M134.912 35.1562L140.013 38.5448C143.392 40.734 144.61 43.5044 142.711 46.5121L142.674 46.5799C141.254 48.7063 139.239 49.0164 137.255 48.4641L136.996 57.0196L133.549 54.7934L133.747 46.9957L132.329 46.0485L128.72 51.5524L125.476 49.437L134.912 35.1562ZM135.679 45.0597C137.301 46.1174 138.582 46.0236 139.461 44.5691L139.498 44.5014C140.481 43.016 139.894 41.9942 138.34 40.9733L136.515 39.8048L133.785 43.8544L135.679 45.0597Z" fill="#242938"/>
<path d="M153.503 66.2596L162.879 61.7845L164.554 65.3305L155.319 69.7069C152.721 70.9291 152.02 72.2171 152.985 74.3226C153.986 76.3603 155.385 76.8577 158.229 75.5059L167.323 71.2282L168.998 74.7742L159.726 79.2184C155.478 81.2122 152.241 79.8913 150.208 75.7113C148.347 71.5372 149.359 68.2225 153.503 66.2596Z" fill="#242938"/>
<path d="M171.245 81.7938L171.923 86.2031L161.732 94.2761L172.844 92.5893L173.348 96.0257L156.403 98.5807L155.843 94.7625L166.821 85.8881L154.773 87.6805L154.269 84.2441L171.245 81.7938Z" fill="#242938"/>
<path d="M161.748 100.873L161.242 104.55C159.689 104.496 158.359 105.003 158.03 107.547C157.799 109.266 158.62 110.503 159.963 110.618C161.27 110.802 161.879 110.167 162.584 107.739C163.699 103.427 165.237 101.891 168.54 102.282C171.43 102.624 173.27 105.382 172.831 109.096C172.32 112.946 170.351 114.95 166.938 114.763L167.37 111.221C168.959 111.207 169.784 110.337 169.978 108.686C170.173 107.036 169.482 106.045 168.415 105.904C167.177 105.757 166.574 106.22 165.863 108.82C164.828 112.825 163.413 114.779 159.938 114.382C156.912 113.966 154.795 111.233 155.313 107.211C155.854 102.499 158.371 100.617 161.748 100.873Z" fill="#242938"/>
<path d="M162.518 117.717L162.653 117.791C167.419 119.856 169.262 124.547 167.346 129.039C165.731 132.817 162.691 134.852 158.623 133.606L160.164 129.965C162.148 130.517 163.62 129.912 164.449 127.903C165.536 125.42 164.201 123.025 161.002 121.636L160.866 121.563C157.599 120.137 155.086 120.879 153.962 123.43C153.17 125.371 153.524 127.144 155.417 128.35L153.95 131.856C150.22 129.827 149.413 126.138 151.065 122.293C153.281 117.086 157.648 115.684 162.518 117.717Z" fill="#242938"/>
<path d="M160.563 141.513L158.078 144.465L152.705 139.962L148.277 145.196L153.65 149.699L151.165 152.652L138.069 141.665L140.554 138.712L145.995 143.252L150.423 138.018L144.982 133.478L147.467 130.526L160.563 141.513Z" fill="#242938"/>
<path d="M141.513 150.038L141.612 150.18C144.261 154.519 143.018 159.553 138.746 162.236C134.37 164.951 129.464 163.952 126.747 159.575L126.648 159.434C123.999 155.094 124.965 150.086 129.483 147.273C134.001 144.459 138.895 145.803 141.513 150.038ZM130.003 157.305L130.101 157.447C131.905 160.272 134.531 161.261 137.141 159.694C139.646 158.158 140.055 155.306 138.22 152.376L138.122 152.234C136.288 149.304 133.446 148.55 131.082 149.987C128.577 151.523 128.169 154.376 130.003 157.305Z" fill="#242938"/>
<path d="M123.428 160.669L123.49 160.879C124.668 165.823 121.927 170.218 116.981 171.393C111.931 172.599 107.596 170.066 106.418 165.122L106.356 164.912C105.178 159.968 107.679 155.53 112.902 154.33C118.094 153.025 122.281 155.829 123.428 160.669ZM110.224 163.941L110.286 164.151C111.073 167.39 113.325 169.229 116.182 168.499C119.108 167.806 120.299 165.292 119.481 161.948L119.419 161.739C118.638 158.328 116.171 156.723 113.455 157.354C110.671 157.948 109.443 160.53 110.224 163.941Z" fill="#242938"/>
<path d="M101.957 173.324L98.0933 173.155L98.6086 159.118L91.6401 158.841L91.7096 155.805L102.541 156.249L101.957 173.324Z" fill="#242938"/>
<path d="M85.591 172.066L74.811 169.102L75.6015 166.194L82.6525 168.096L83.6819 164.264L78.0361 162.687L78.8207 159.951L84.4665 161.529L85.5756 157.388L78.1486 155.37L78.9391 152.462L90.0272 155.505L85.591 172.066Z" fill="#242938"/>
<path d="M68.9178 166.687L63.5965 163.706C60.1064 161.72 58.6793 159.011 60.4429 155.93L60.4798 155.862C61.7642 153.662 63.7165 153.142 65.8059 153.664L65.4421 145.121L69 147.144L69.3564 154.892L70.8486 155.703L74.0869 149.91L77.4413 151.822L68.9178 166.687ZM67.5603 156.902C65.8647 155.98 64.6143 156.178 63.8401 157.602L63.8033 157.669C62.9553 159.229 63.5421 160.25 65.1699 161.136L67.069 162.168L69.4963 157.867L67.5603 156.902Z" fill="#242938"/>
<defs>
<filter id="filter0_d" x="29.2733" y="61.6456" width="25.9463" height="25.3195" filterUnits="userSpaceOnUse" color-interpolation-filters="sRGB">
<feFlood flood-opacity="0" result="BackgroundImageFix"/>
<feColorMatrix in="SourceAlpha" type="matrix" values="0 0 0 0 0 0 0 0 0 0 0 0 0 0 0 0 0 0 127 0"/>
<feOffset dy="4"/>
<feGaussianBlur stdDeviation="2"/>
<feColorMatrix type="matrix" values="0 0 0 0 0 0 0 0 0 0 0 0 0 0 0 0 0 0 0.25 0"/>
<feBlend mode="normal" in2="BackgroundImageFix" result="effect1_dropShadow"/>
<feBlend mode="normal" in="SourceGraphic" in2="effect1_dropShadow" result="shape"/>
</filter>
</defs>
</svg>
