<svg width="819" height="994" viewBox="0 0 819 994" fill="none" xmlns="http://www.w3.org/2000/svg">
<path d="M570.623 248.166C572.311 246.973 574.647 247.373 575.84 249.061L719.241 451.878C720.62 453.829 719.844 456.555 717.644 457.486L239.936 659.663C238.315 660.349 236.436 659.814 235.421 658.377L155.933 545.955C154.74 544.267 155.141 541.932 156.828 540.738L570.623 248.166Z" fill="#FF5F49"/>
<path d="M688.211 765.237C688.629 759.07 696.607 756.912 700.077 762.028L803.595 914.638C805.912 918.053 804.501 922.734 800.683 924.301L683.56 972.372C679.107 974.2 674.28 970.722 674.606 965.919L688.211 765.237Z" fill="#87CEE1"/>
<path d="M672.071 401.451C669.035 400.421 666.194 403.435 667.401 406.405L741.427 588.57C742.775 591.887 747.564 591.6 748.506 588.146L787.709 444.409C788.23 442.5 787.175 440.516 785.301 439.88L672.071 401.451Z" stroke="black" stroke-width="3.25046"/>
<path d="M409.699 528.479C409.703 530.546 408.03 532.225 405.963 532.23L294.055 532.453C291.987 532.457 290.308 530.784 290.304 528.717L289.71 230.64C289.706 228.573 291.379 226.894 293.446 226.89L405.354 226.667C407.421 226.663 409.1 228.335 409.105 230.402L409.699 528.479Z" fill="#FAC22D"/>
<path d="M239.96 480.716C239.821 482.779 238.036 484.338 235.973 484.199L232.627 483.974C230.565 483.835 229.005 482.05 229.144 479.988L241.97 289.635C242.109 287.572 243.893 286.013 245.956 286.152L249.302 286.377C251.365 286.516 252.924 288.301 252.785 290.363L239.96 480.716Z" fill="#FAC22D"/>
<path d="M290.639 428.476C290.753 430.54 289.172 432.306 287.108 432.421L266.43 433.565C264.366 433.679 262.6 432.098 262.486 430.034L251.946 239.541C251.832 237.477 253.413 235.711 255.477 235.597L276.155 234.453C278.219 234.339 279.985 235.919 280.099 237.983L290.639 428.476Z" fill="#FAC22D"/>
<path d="M181.715 75.5465L713.363 845.665" stroke="#242938" stroke-width="3.25046"/>
<path d="M317.112 568.149C320.061 567.638 322.388 570.623 321.171 573.358L207.657 828.505C206.059 832.098 200.711 831.111 200.5 827.185L187.943 593.878C187.841 591.983 189.172 590.312 191.041 589.988L317.112 568.149Z" stroke="black" stroke-width="3.25046"/>
<path d="M213.244 490.084C216.771 488.353 220.242 492.531 217.894 495.681L81.3248 678.897C78.5973 682.556 72.9389 679.077 74.973 674.992L151.531 521.226C151.897 520.491 152.495 519.896 153.233 519.534L213.244 490.084Z" stroke="black" stroke-width="3.25046"/>
<path d="M621.423 150.009C623.345 148.328 626.35 149.023 627.338 151.378L684.567 287.708C685.98 291.074 682.231 294.264 679.134 292.332L554.758 214.725C552.627 213.396 552.384 210.386 554.275 208.732L621.423 150.009Z" fill="#FAC22D"/>
<circle cx="378.774" cy="125.549" r="77.6047" fill="#87CEE1"/>
<circle cx="274.759" cy="125.549" r="13.4081" fill="#87CEE1"/>
<circle cx="283.698" cy="75.1669" r="6.90722" fill="#87CEE1"/>
<path d="M684.186 819.662L660.297 834.864L655.78 827.766L663.641 822.763L641.008 787.196L633.147 792.199L628.606 785.062L652.495 769.86L657.037 776.997L648.908 782.169L671.541 817.736L679.669 812.564L684.186 819.662Z" fill="black"/>
<path d="M712.368 757.281L705.308 761.774L698.29 750.745L691.573 755.019L714.206 790.586L722.106 785.559L726.622 792.658L702.962 807.714L698.445 800.616L706.307 795.613L683.674 760.046L676.881 764.369L683.899 775.398L676.877 779.866L665.318 761.701L700.808 739.116L712.368 757.281Z" fill="black"/>
<path d="M439.546 300.286L423.053 295.348L432.237 264.672L398.772 254.653L389.588 285.329L373.094 280.391L395.327 206.131L411.821 211.069L403.209 239.833L436.674 249.852L445.286 221.088L461.779 226.026L439.546 300.286Z" fill="#242938"/>
<path d="M545.536 291.647C543.803 297.437 541.299 302.418 538.024 306.589C534.803 310.776 530.949 314.079 526.463 316.498C522.045 318.879 517.16 320.311 511.806 320.792C506.453 321.273 500.828 320.631 494.932 318.865C489.142 317.132 484.143 314.593 479.935 311.25C475.727 307.906 472.405 304.018 469.97 299.584C467.604 295.114 466.199 290.236 465.756 284.952C465.365 279.684 466.036 274.155 467.77 268.365C469.456 262.734 471.917 257.799 475.155 253.559C478.461 249.281 482.331 245.925 486.764 243.49C491.267 241.018 496.186 239.568 501.524 239.14C506.877 238.659 512.449 239.286 518.239 241.019C524.135 242.784 529.187 245.339 533.395 248.682C537.619 251.973 540.906 255.88 543.257 260.404C545.676 264.89 547.064 269.821 547.423 275.195C547.851 280.533 547.222 286.017 545.536 291.647ZM529.123 286.733C530.125 283.387 530.54 280.067 530.368 276.774C530.265 273.444 529.549 270.423 528.22 267.709C526.89 264.996 525.001 262.607 522.551 260.543C520.171 258.441 517.254 256.873 513.802 255.839C510.296 254.79 506.971 254.489 503.827 254.937C500.699 255.331 497.861 256.305 495.312 257.857C492.764 259.41 490.505 261.54 488.536 264.25C486.637 266.923 485.186 269.932 484.184 273.279C483.134 276.785 482.685 280.123 482.835 283.293C483.039 286.48 483.771 289.448 485.031 292.199C486.291 294.949 488.119 297.349 490.516 299.398C492.928 301.393 495.887 302.916 499.393 303.965C502.846 304.999 506.128 305.345 509.24 305.004C512.421 304.625 515.321 303.64 517.938 302.051C520.556 300.462 522.798 298.384 524.666 295.817C526.588 293.267 528.073 290.239 529.123 286.733Z" fill="#242938"/>
<path d="M627.56 334.35C625.54 341.096 621.517 345.448 615.49 347.406C609.532 349.326 601.932 348.903 592.689 346.136L551.256 333.731L573.489 259.471L611.974 270.993C615.374 272.01 618.667 273.286 621.855 274.819C625.111 276.315 627.853 278.177 630.079 280.407C632.322 282.583 633.885 285.193 634.768 288.235C635.651 291.278 635.489 294.818 634.28 298.855C633.167 302.573 630.996 305.57 627.768 307.845C624.541 310.12 620.268 311.243 614.952 311.214C620.753 313.877 624.653 317.186 626.653 321.142C628.721 325.06 629.023 329.463 627.56 334.35ZM617.373 295.877C617.85 294.283 617.887 292.905 617.483 291.742C617.147 290.542 616.501 289.51 615.545 288.644C614.657 287.742 613.52 286.996 612.134 286.408C610.801 285.835 609.443 285.342 608.062 284.928L585.832 278.273L581.371 293.173L603.601 299.828C604.982 300.242 606.387 300.575 607.816 300.83C609.314 301.047 610.674 301.048 611.895 300.835C613.17 300.638 614.269 300.157 615.192 299.392C616.185 298.589 616.912 297.417 617.373 295.877ZM611.966 326.989C612.745 324.387 612.236 322.122 610.44 320.195C608.66 318.215 605.804 316.636 601.873 315.46L576.934 307.993L572.187 323.849L597.126 331.316C601.057 332.492 604.31 332.743 606.886 332.067C609.461 331.391 611.154 329.699 611.966 326.989Z" fill="#242938"/>
<path d="M642.507 337.783C643.811 333.427 646.117 329.979 649.424 327.439C652.748 324.845 656.621 323.024 661.045 321.975C665.521 320.942 670.362 320.626 675.567 321.027C680.841 321.39 686.028 322.335 691.127 323.862C693.943 324.705 696.344 325.482 698.33 326.192C700.317 326.903 702.315 327.674 704.323 328.507L705.205 325.559C706.366 321.681 705.719 318.333 703.264 315.514C700.862 312.711 697.217 310.578 692.33 309.115C687.868 307.779 683.135 307.057 678.132 306.948C673.145 306.787 668.222 307.281 663.363 308.43L660.535 293.519C666.265 292.166 672.157 291.528 678.211 291.605C684.335 291.644 690.504 292.594 696.719 294.454C700.756 295.663 704.579 297.299 708.186 299.363C711.846 301.443 714.907 303.98 717.368 306.974C719.882 309.984 721.567 313.441 722.424 317.344C723.298 321.194 723.003 325.562 721.539 330.449L706.63 380.249L690.296 375.358L693.564 364.442C689.752 367.7 684.963 369.681 679.196 370.385C673.481 371.106 667.703 370.591 661.86 368.842C658.247 367.76 654.972 366.23 652.034 364.25C649.133 362.34 646.808 360.052 645.06 357.387C643.311 354.722 642.149 351.741 641.573 348.443C641.067 345.108 641.378 341.554 642.507 337.783ZM670.496 355.365C673.736 356.336 676.883 356.844 679.937 356.89C683.06 356.899 685.925 356.512 688.532 355.73C691.155 354.894 693.388 353.624 695.23 351.918C697.125 350.228 698.446 348.135 699.194 345.638L700.029 342.849C697.553 341.645 695.181 340.675 692.913 339.938C690.645 339.201 688.634 338.57 686.881 338.045C678.807 335.628 672.38 334.861 667.601 335.745C662.875 336.646 660.042 338.663 659.104 341.797C657.243 348.012 661.04 352.535 670.496 355.365Z" fill="#242938"/>
<path d="M760.715 365.185C752.353 362.567 746.4 358.672 742.855 353.501C739.31 348.33 738.658 341.999 740.9 334.509C743.143 327.02 747.235 322.051 753.177 319.605C759.118 317.159 766.392 317.224 774.997 319.8L818.103 332.706L795.87 406.966L779.377 402.028L787.965 373.344L781.272 371.34L746.549 392.2L724.558 385.616L760.715 365.185ZM757.442 339.288C756.631 341.997 756.982 344.302 758.497 346.202C760.028 348.05 762.413 349.459 765.653 350.429L792.426 358.444L797.149 342.668L770.377 334.652C767.136 333.682 764.361 333.575 762.052 334.33C759.758 335.033 758.221 336.685 757.442 339.288Z" fill="#242938"/>
<path d="M190.839 307.413L179.03 301.095L201.768 258.593L177.807 245.774L155.069 288.276L143.26 281.958L171.705 228.788L219.285 254.242L190.839 307.413Z" fill="#242938"/>
<path d="M235.487 262.91L247.296 269.228L244.732 274.02C248.055 273.205 251.121 272.913 253.932 273.145C256.802 273.36 259.72 274.26 262.686 275.847C266.109 277.679 268.909 280.081 271.084 283.055C273.28 285.991 274.763 289.255 275.532 292.846C276.322 296.399 276.399 300.232 275.765 304.344C275.151 308.418 273.765 312.471 271.608 316.502C269.431 320.572 266.819 323.992 263.77 326.764C260.722 329.536 257.491 331.599 254.076 332.952C250.682 334.267 247.155 334.825 243.494 334.628C239.833 334.43 236.291 333.416 232.868 331.585C229.901 329.998 227.543 328.051 225.792 325.745C224.08 323.459 222.641 320.708 221.476 317.492L207.467 343.678L195.657 337.36L235.487 262.91ZM226.481 308.136C227.054 310.448 228.19 312.621 229.89 314.656C231.649 316.673 233.536 318.22 235.551 319.299C240.001 321.679 244.459 322.034 248.924 320.363C253.427 318.712 257.052 315.319 259.799 310.184C262.546 305.05 263.367 300.132 262.261 295.432C261.194 290.752 258.436 287.222 253.986 284.841C251.97 283.763 249.635 283.052 246.982 282.708C244.387 282.347 241.968 282.57 239.727 283.376L226.481 308.136Z" fill="#242938"/>
<path d="M336.759 351.357C334.541 355.502 331.861 358.911 328.719 361.584C325.615 364.277 322.166 366.199 318.371 367.348C314.635 368.48 310.689 368.815 306.533 368.353C302.378 367.891 298.189 366.531 293.968 364.272C289.822 362.054 286.404 359.345 283.714 356.145C281.023 352.944 279.093 349.466 277.923 345.709C276.811 341.935 276.495 337.999 276.975 333.902C277.493 329.825 278.861 325.714 281.079 321.569C283.235 317.537 285.876 314.156 289 311.425C292.183 308.676 295.653 306.716 299.409 305.546C303.225 304.359 307.2 304.015 311.335 304.515C315.49 304.977 319.641 306.317 323.786 308.535C328.008 310.793 331.464 313.523 334.155 316.723C336.865 319.886 338.766 323.373 339.858 327.185C341.007 330.98 341.303 334.954 340.744 339.107C340.244 343.242 338.916 347.325 336.759 351.357ZM325.007 345.069C326.289 342.673 327.119 340.207 327.498 337.67C327.935 335.116 327.857 332.701 327.263 330.427C326.67 328.153 325.6 326.039 324.052 324.086C322.562 322.115 320.582 320.469 318.109 319.146C315.599 317.803 313.111 317.059 310.645 316.914C308.199 316.731 305.885 317.033 303.702 317.822C301.519 318.611 299.467 319.886 297.547 321.647C295.685 323.39 294.113 325.46 292.831 327.856C291.488 330.366 290.628 332.841 290.252 335.282C289.914 337.742 290.013 340.119 290.548 342.41C291.083 344.702 292.105 346.815 293.615 348.747C295.145 350.642 297.165 352.261 299.675 353.604C302.147 354.927 304.596 355.698 307.021 355.92C309.505 356.123 311.868 355.822 314.109 355.015C316.351 354.209 318.382 352.972 320.203 351.305C322.063 349.658 323.664 347.58 325.007 345.069Z" fill="#242938"/>
<path d="M374.283 353.087C374.427 351.354 374.252 350.037 373.755 349.136C373.297 348.255 372.65 347.59 371.813 347.143C370.938 346.675 369.949 346.512 368.845 346.656C367.779 346.819 366.614 347.443 365.349 348.527C364.084 349.612 362.66 351.222 361.076 353.359C359.551 355.479 357.893 358.212 356.103 361.558C354.272 364.981 352.898 367.915 351.981 370.36C351.123 372.787 350.584 374.847 350.363 376.539C350.143 378.231 350.26 379.566 350.716 380.543C351.209 381.541 351.893 382.274 352.768 382.742C353.605 383.189 354.517 383.359 355.504 383.251C356.529 383.164 357.723 382.579 359.084 381.498L374.283 353.087ZM341.077 415.157L354.384 390.283C352.9 391.593 351.241 392.271 349.407 392.317C347.552 392.401 345.845 392.026 344.285 391.191C342.194 390.072 340.569 388.445 339.413 386.31C338.256 384.174 337.613 381.581 337.485 378.528C337.378 375.437 337.869 371.958 338.96 368.09C340.013 364.202 341.791 359.919 344.294 355.241C346.796 350.563 349.373 346.707 352.023 343.673C354.635 340.619 357.236 338.317 359.826 336.768C362.437 335.18 364.941 334.294 367.339 334.109C369.757 333.887 372.012 334.335 374.104 335.454C375.663 336.288 376.923 337.5 377.882 339.09C378.862 340.641 379.219 342.397 378.953 344.358L392.29 319.428L404.1 325.746L390.762 350.676C392.284 349.387 393.943 348.709 395.739 348.643C397.594 348.559 399.301 348.934 400.86 349.768C402.99 350.908 404.633 352.545 405.79 354.68C406.967 356.778 407.62 359.352 407.748 362.405C407.896 365.419 407.425 368.861 406.334 372.729C405.281 376.617 403.504 380.9 401.001 385.578C398.498 390.256 395.922 394.112 393.271 397.146C390.659 400.2 388.038 402.54 385.407 404.165C382.797 405.753 380.282 406.658 377.864 406.881C375.446 407.103 373.172 406.645 371.042 405.506C369.482 404.671 368.223 403.459 367.263 401.87C366.321 400.339 365.965 398.582 366.193 396.601L352.886 421.475L341.077 415.157ZM370.893 387.815C370.787 389.569 370.963 390.886 371.421 391.767C371.917 392.668 372.583 393.343 373.42 393.79C374.295 394.258 375.265 394.41 376.331 394.247C377.435 394.104 378.63 393.471 379.915 392.348C381.2 391.226 382.595 389.624 384.1 387.543C385.663 385.444 387.36 382.683 389.192 379.26C390.982 375.914 392.317 373.008 393.195 370.542C394.132 368.06 394.701 365.991 394.901 364.337C395.101 362.683 394.954 361.357 394.46 360.359C394.005 359.382 393.34 358.659 392.465 358.191C391.628 357.744 390.697 357.564 389.672 357.651C388.685 357.759 387.492 358.343 386.092 359.405L370.893 387.815Z" fill="#242938"/>
<path d="M418.241 400.672C416.858 404.628 416.961 408.597 418.55 412.577C420.196 416.54 423.473 419.834 428.379 422.458C432.22 424.513 435.864 425.704 439.309 426.031C442.812 426.34 446.12 426.055 449.232 425.176L450.823 436.74C445.569 438.332 440.685 438.728 436.173 437.928C431.698 437.148 427.197 435.548 422.672 433.127C418.564 430.929 415.108 428.2 412.303 424.938C409.499 421.677 407.454 418.137 406.17 414.319C404.907 410.464 404.439 406.447 404.766 402.268C405.132 398.11 406.424 393.958 408.641 389.813C410.798 385.781 413.448 382.429 416.59 379.756C419.79 377.066 423.269 375.135 427.025 373.965C430.84 372.778 434.826 372.415 438.981 372.877C443.157 373.301 447.318 374.622 451.463 376.84C455.761 379.139 459.263 381.966 461.968 385.322C464.694 388.639 466.55 392.347 467.537 396.446C468.562 400.565 468.7 405.017 467.95 409.801C467.221 414.548 465.503 419.45 462.797 424.508L418.241 400.672ZM455.002 406.983C456.225 403.235 455.921 399.55 454.092 395.93C452.282 392.271 449.514 389.445 445.786 387.451C442.059 385.457 438.153 384.712 434.067 385.217C430.002 385.684 426.749 387.466 424.309 390.563L455.002 406.983Z" fill="#242938"/>
<path d="M514.605 470.862C509.35 472.454 504.486 472.86 500.011 472.081C495.574 471.321 491.15 469.762 486.738 467.401C482.288 465.021 478.594 462.188 475.655 458.904C472.754 455.64 470.67 452.128 469.404 448.369C468.196 444.591 467.823 440.625 468.285 436.47C468.785 432.335 470.164 428.156 472.423 423.935C474.58 419.903 477.239 416.532 480.402 413.821C483.622 411.093 487.025 409.122 490.609 407.908C494.252 406.677 497.999 406.212 501.85 406.511C505.721 406.772 509.407 407.839 512.906 409.711C516.557 411.664 519.326 414.124 521.212 417.089C523.099 420.055 523.867 423.328 523.517 426.908L527.638 419.206L538.192 424.853L524.946 449.612L514.392 443.966C516.894 439.288 517.595 434.869 516.494 430.709C515.452 426.531 512.877 423.343 508.769 421.146C507.134 420.271 505.22 419.687 503.028 419.395C500.895 419.086 498.691 419.227 496.417 419.821C494.181 420.434 491.988 421.561 489.84 423.2C487.691 424.838 485.803 427.179 484.175 430.222C482.588 433.188 481.69 436.01 481.481 438.687C481.292 441.325 481.582 443.755 482.351 445.976C483.178 448.179 484.444 450.202 486.149 452.044C487.913 453.868 489.916 455.38 492.16 456.58C496.002 458.635 499.645 459.826 503.09 460.153C506.594 460.462 509.901 460.177 513.013 459.298L514.605 470.862Z" fill="#242938"/>
<path d="M578.386 504.984C573.132 506.576 568.267 506.982 563.793 506.203C559.356 505.443 554.932 503.884 550.52 501.523C546.07 499.143 542.375 496.31 539.436 493.026C536.535 489.762 534.452 486.25 533.185 482.491C531.977 478.713 531.604 474.747 532.066 470.592C532.567 466.457 533.946 462.278 536.204 458.057C538.361 454.025 541.021 450.654 544.183 447.943C547.404 445.215 550.806 443.244 554.391 442.03C558.033 440.799 561.78 440.334 565.631 440.633C569.503 440.894 573.188 441.961 576.687 443.833C580.338 445.786 583.107 448.246 584.994 451.211C586.88 454.177 587.648 457.45 587.299 461.03L591.419 453.328L601.973 458.975L588.727 483.734L578.173 478.088C580.676 473.41 581.377 468.991 580.276 464.831C579.233 460.653 576.658 457.465 572.551 455.268C570.915 454.393 569.002 453.809 566.81 453.517C564.676 453.208 562.472 453.349 560.198 453.943C557.962 454.556 555.77 455.683 553.621 457.322C551.473 458.96 549.584 461.301 547.957 464.344C546.369 467.31 545.471 470.132 545.263 472.809C545.074 475.447 545.364 477.877 546.132 480.098C546.959 482.301 548.225 484.324 549.93 486.166C551.694 487.99 553.698 489.502 555.942 490.702C559.783 492.758 563.426 493.948 566.872 494.275C570.375 494.584 573.683 494.299 576.795 493.42L578.386 504.984Z" fill="#242938"/>
<path d="M618.175 467.642L629.985 473.96L610.421 510.529L650.922 485.161L665.755 493.097L637.309 546.267L625.5 539.949L646.193 501.269L603.422 528.138L589.73 520.813L618.175 467.642Z" fill="#242938"/>
<path d="M680.758 543.095C674.79 539.804 670.854 535.913 668.952 531.422C667.05 526.932 667.533 522.005 670.402 516.642C673.271 511.279 677.159 508.126 682.068 507.18C686.976 506.235 692.511 507.411 698.672 510.707L729.536 527.219L701.091 580.389L689.282 574.071L700.269 553.533L695.477 550.969L665.777 561.496L650.031 553.073L680.758 543.095ZM682.272 522.846C681.234 524.785 681.146 526.597 682.006 528.28C682.887 529.926 684.488 531.369 686.808 532.61L705.976 542.865L712.019 531.569L692.851 521.314C690.531 520.073 688.432 519.562 686.554 519.78C684.696 519.96 683.269 520.982 682.272 522.846Z" fill="#242938"/>
</svg>
