<svg width="490" height="474" viewBox="0 0 490 474" fill="none" xmlns="http://www.w3.org/2000/svg">
<path d="M152.171 173.253L143.395 178.261L125.091 146.706L107.289 156.974L125.593 188.529L116.817 193.538L93.9999 154.219L129.354 133.809L152.171 173.253Z" fill="black"/>
<path d="M141.389 126.796L150.165 121.788L152.171 125.294C152.923 122.789 154.051 120.786 155.305 119.033C156.559 117.28 158.314 115.777 160.57 114.525C163.078 113.022 165.836 112.271 168.594 112.02C171.352 111.77 174.11 112.146 176.617 113.022C179.25 113.899 181.758 115.401 184.14 117.405C186.522 119.408 188.527 121.913 190.283 124.918C192.038 127.923 193.166 130.929 193.793 134.059C194.294 137.064 194.42 140.07 193.918 142.699C193.417 145.454 192.414 147.958 190.784 150.212C189.154 152.466 187.148 154.345 184.641 155.847C182.384 157.099 180.253 157.851 178.122 158.101C175.991 158.352 173.609 158.101 171.101 157.6L182.384 177.009L173.609 182.018L141.389 126.796ZM166.964 150.713C168.719 151.214 170.474 151.339 172.48 151.089C174.486 150.838 176.241 150.212 177.746 149.336C181.005 147.457 183.011 144.703 183.763 141.197C184.516 137.69 183.763 133.934 181.507 130.177C179.25 126.421 176.492 123.916 172.982 122.664C169.471 121.537 166.212 121.913 162.827 123.791C161.323 124.668 159.944 125.92 158.69 127.422C157.436 128.925 156.559 130.678 156.182 132.431L166.964 150.713Z" fill="black"/>
<path d="M238.8 97.1193C240.555 100.25 241.684 103.255 242.185 106.386C242.686 109.516 242.561 112.396 241.684 115.276C240.931 118.156 239.552 120.786 237.546 123.29C235.54 125.795 233.033 127.923 229.899 129.676C226.765 131.429 223.756 132.556 220.622 133.057C217.487 133.558 214.479 133.308 211.595 132.556C208.712 131.805 206.079 130.428 203.697 128.424C201.315 126.421 199.184 123.916 197.429 120.911C195.673 117.906 194.545 114.9 194.044 111.77C193.542 108.639 193.668 105.634 194.42 102.754C195.172 99.8741 196.551 97.1193 198.557 94.7401C200.563 92.2357 203.07 90.107 206.079 88.3539C209.213 86.6009 212.347 85.3487 215.482 84.973C218.616 84.4721 221.625 84.7226 224.508 85.4739C227.392 86.2252 230.024 87.7278 232.532 89.6061C234.914 91.6096 237.045 94.114 238.8 97.1193ZM230.024 102.128C229.021 100.375 227.768 98.8724 226.263 97.495C224.759 96.2428 223.254 95.3662 221.499 94.7401C219.744 94.2393 217.989 93.9888 216.108 94.2393C214.228 94.4897 212.347 94.9906 210.592 96.1175C208.712 97.2445 207.207 98.4967 206.204 99.9993C205.076 101.502 204.449 103.13 204.073 104.883C203.697 106.636 203.697 108.389 204.073 110.393C204.449 112.271 205.201 114.149 206.204 115.902C207.333 117.781 208.586 119.283 209.965 120.535C211.344 121.788 212.974 122.664 214.604 123.165C216.234 123.666 217.989 123.916 219.869 123.666C221.75 123.415 223.505 122.789 225.386 121.788C227.266 120.786 228.645 119.408 229.774 118.031C230.902 116.528 231.654 114.9 232.03 113.147C232.406 111.394 232.406 109.641 232.03 107.763C231.779 105.885 231.027 104.006 230.024 102.128Z" fill="black"/>
<path d="M281.551 119.784L270.769 101.252C271.02 102.754 270.769 104.132 270.142 105.259C269.39 106.511 268.512 107.387 267.384 108.139C265.88 109.015 264.124 109.391 262.244 109.266C260.363 109.14 258.483 108.514 256.477 107.387C254.471 106.26 252.465 104.507 250.334 102.253C248.328 99.9993 246.197 97.1193 244.191 93.7384C242.185 90.3574 240.681 87.1017 239.803 84.2217C238.925 81.3416 238.424 78.712 238.549 76.4581C238.549 74.2041 239.051 72.2006 239.803 70.5728C240.681 68.9449 241.809 67.6927 243.439 66.8162C244.567 66.1901 245.821 65.8144 247.325 65.8144C248.704 65.8144 249.958 66.3153 251.212 67.1918L240.555 48.6594L249.331 43.6506L259.987 62.1831C259.737 60.6804 259.987 59.303 260.614 58.176C261.241 56.9238 262.244 56.0473 263.372 55.4212C265.002 54.5447 266.632 54.0438 268.512 54.169C270.393 54.2942 272.273 54.9203 274.279 56.0473C276.285 57.1743 278.291 58.8021 280.422 61.0561C282.428 63.31 284.559 66.1901 286.565 69.571C288.571 73.0771 290.076 76.2076 290.953 79.0877C291.831 81.9677 292.332 84.5973 292.332 86.9765C292.332 89.3557 291.956 91.234 291.079 92.987C290.201 94.6149 289.073 95.8671 287.443 96.8688C286.315 97.4949 285.061 97.8706 283.682 97.8706C282.303 97.8706 281.049 97.3697 279.795 96.4932L290.452 114.9L281.551 119.784ZM254.847 73.7032C253.844 72.9519 252.841 72.451 252.089 72.451C251.337 72.451 250.585 72.5763 249.958 72.9519C249.331 73.3276 248.829 73.9537 248.453 74.705C248.077 75.4563 248.077 76.4581 248.203 77.7103C248.453 78.9625 248.83 80.4651 249.582 82.3434C250.334 84.2217 251.462 86.3504 252.841 88.8548C254.346 91.3592 255.599 93.4879 256.853 94.9906C258.107 96.4932 259.11 97.7454 260.113 98.4967C261.116 99.3732 261.993 99.7489 262.871 99.8741C263.748 99.9993 264.375 99.8741 265.127 99.4985C265.754 99.1228 266.256 98.6219 266.506 97.8706C266.883 97.2445 266.883 96.2427 266.757 94.8653L254.847 73.7032ZM275.784 89.7313C276.912 90.4827 277.79 90.8583 278.542 90.9835C279.294 90.9835 280.046 90.8583 280.673 90.4827C281.3 90.107 281.801 89.4809 282.177 88.7296C282.554 87.9783 282.554 86.9765 282.428 85.7243C282.177 84.4721 281.801 82.8443 281.049 81.0912C280.297 79.2129 279.169 77.0842 277.79 74.5798C276.41 72.0754 275.031 70.0719 273.778 68.444C272.524 66.8162 271.396 65.6892 270.518 64.9379C269.515 64.1866 268.638 63.6857 267.76 63.5605C266.883 63.4352 266.256 63.5605 265.503 63.9361C264.877 64.3118 264.375 64.8127 263.999 65.4388C263.623 66.0649 263.498 67.0666 263.623 68.444L275.784 89.7313Z" fill="black"/>
<path d="M302.389 64.1116C304.345 66.5691 306.866 68.2271 310.129 68.7788C313.27 69.363 316.726 68.6964 320.463 66.658C323.417 65.0886 325.636 63.1977 327.306 61.1946C328.943 59.0706 330.184 56.923 330.844 54.5424L338.842 58.2331C337.691 62.1713 335.861 65.5137 333.529 67.9533C331.23 70.5139 328.285 72.5995 324.911 74.5406C321.868 76.2633 318.631 77.2604 315.386 77.7412C312.14 78.2219 309.095 78.0006 306.163 77.2306C303.231 76.4605 300.533 75.1094 297.947 73.2095C295.483 71.2771 293.373 68.7312 291.618 65.5717C289.895 62.5331 288.931 59.4207 288.517 56.4205C288.07 53.2994 288.293 50.2579 289.219 47.417C289.992 44.4876 291.5 41.8798 293.435 39.4166C295.492 36.9209 298.042 34.8117 301.117 33.2099C304.402 31.4222 307.639 30.4252 310.796 30.0978C314.074 29.738 317.151 30.0802 320.181 31.2131C323.177 32.2251 326.126 34.0276 328.721 36.4438C331.436 38.8275 333.829 41.9457 335.9 45.7985L302.389 64.1116ZM321.508 43.4323C319.584 41.0958 317.16 39.8006 314.083 39.4584C311.006 39.1161 308.068 39.7739 305.356 41.2783C302.523 42.8152 300.49 44.9156 299.047 47.7653C297.725 50.5826 297.437 53.3822 298.457 56.2202L321.508 43.4323Z" fill="black"/>
<path d="M351.166 109.824C348.193 106.951 346.247 103.803 345.094 100.534C344.049 97.3288 343.472 93.8147 343.363 89.9923C343.362 86.2325 343.904 82.7861 345.052 79.5447C346.137 76.4118 347.811 73.7634 349.794 71.5826C351.885 69.4645 354.348 67.7056 357.338 66.5397C360.327 65.3738 363.563 64.7839 367.216 64.7244C370.698 64.7106 373.868 65.239 376.832 66.3723C379.797 67.5057 382.34 69.1185 384.416 71.0398C386.491 72.9611 388.208 75.2534 389.394 77.9626C390.581 80.6718 391.253 83.5183 391.304 86.4394C391.338 89.64 390.675 92.2934 389.36 94.5707C388.045 96.848 386.204 98.5324 383.666 99.6694L390.242 99.5623L390.315 108.713L369.079 108.888L369.006 99.7365C373.048 99.7566 376.208 98.5449 378.579 96.4437C381.013 94.2341 382.082 91.3807 382.064 87.9005C382.039 86.44 381.734 84.9625 381.149 83.4681C380.564 81.9738 379.637 80.5709 378.367 79.2595C377.098 77.9482 375.64 76.9622 373.669 76.1134C371.807 75.3274 369.586 74.9124 367.005 74.8685C364.425 74.8246 362.262 75.3111 360.471 76.1567C358.68 77.0023 357.043 78.0817 356.012 79.3661C354.81 80.6962 353.934 82.2144 353.32 84.0291C352.707 85.8438 352.482 87.7382 352.428 89.5867C352.399 92.8958 352.963 95.6796 353.995 98.155C355.027 100.63 356.48 102.626 358.059 104.405L351.166 109.824Z" fill="black"/>
<path d="M351.757 164.309C348.873 161.429 346.867 158.299 345.739 155.043C344.611 151.788 344.109 148.281 344.109 144.525C344.109 140.768 344.736 137.262 345.864 134.132C346.993 131.001 348.622 128.372 350.628 126.243C352.76 124.114 355.267 122.361 358.15 121.234C361.034 120.107 364.419 119.481 368.055 119.481C371.565 119.481 374.699 120.107 377.708 121.234C380.717 122.361 383.224 123.989 385.355 125.867C387.487 127.871 389.116 130.125 390.245 132.879C391.498 135.509 392 138.389 392 141.394C392 144.525 391.373 147.28 389.994 149.534C388.74 151.788 386.734 153.541 384.227 154.542H390.872V163.683H369.559V154.542C373.571 154.542 376.83 153.415 379.212 151.287C381.594 149.033 382.848 146.278 382.848 142.772C382.848 141.394 382.597 139.892 381.97 138.389C381.344 136.886 380.466 135.384 379.338 134.132C378.084 132.879 376.58 131.752 374.699 131.001C372.819 130.125 370.562 129.749 367.929 129.749C365.422 129.749 363.165 130.125 361.285 131.001C359.404 131.878 357.9 132.879 356.771 134.257C355.518 135.634 354.64 137.137 354.013 138.89C353.387 140.643 353.136 142.521 353.136 144.525C353.136 147.781 353.637 150.661 354.64 153.04C355.643 155.419 357.022 157.548 358.777 159.301L351.757 164.309Z" fill="black"/>
<path d="M390.997 187.726H359.655L390.997 205.632V218.404H345.363V208.261H378.585L345.238 189.228V177.458H390.997V187.726Z" fill="black"/>
<path d="M362.914 246.203C363.04 241.069 364.168 237.062 366.55 234.182C368.807 231.302 372.317 229.924 376.956 229.924C381.594 229.924 385.105 231.427 387.487 234.307C389.869 237.187 391.122 241.319 391.122 246.579V273H345.488V262.857H363.165V258.725L345.488 242.697V229.298L362.914 246.203ZM376.956 239.942C375.326 239.942 374.072 240.568 373.195 241.695C372.317 242.822 371.941 244.45 371.941 246.453V262.857H381.72V246.453C381.72 244.45 381.344 242.822 380.466 241.695C379.588 240.568 378.585 239.942 376.956 239.942Z" fill="black"/>
<path d="M290.815 115.074C306.896 105.598 327.164 117.3 326.998 135.964L324.365 432.355C324.202 450.735 304.285 462.117 288.366 452.926L35.6336 307.011C19.7155 297.821 19.6137 274.88 35.4495 265.549L290.815 115.074Z" fill="#FF5F49"/>
</svg>
