<svg width="378" height="386" viewBox="0 0 378 386" fill="none" xmlns="http://www.w3.org/2000/svg">
<circle cx="217.313" cy="225.811" r="160" fill="#FBA22C"/>
<path d="M57.1931 166.004L54.8407 176.688L16.5944 168.373L11.9091 189.86L50.2734 198.156L47.9209 208.84L0 198.495L9.27218 155.659L57.1931 166.004Z" fill="#242938"/>
<path d="M16.9694 131.856L22.4477 122.47L26.2215 124.751C25.6541 122.06 25.4799 119.545 25.8169 117.188C26.0358 114.851 26.8645 112.533 28.3029 110.236C29.9187 107.546 31.9667 105.269 34.3681 103.66C36.868 101.913 39.485 100.874 42.4359 100.385C45.3867 99.8955 48.4157 99.8779 51.798 100.528C55.0622 101.198 58.4242 102.458 61.5102 104.248C64.7337 106.136 67.4062 108.357 69.6456 110.893C71.767 113.448 73.4162 116.081 74.3768 118.95C75.3178 121.7 75.6882 124.667 75.4489 127.613C75.2096 130.559 74.2231 133.387 72.6268 136.195C71.208 138.611 69.5734 140.456 67.7231 141.732C65.7548 143.027 63.5114 144.125 60.8748 145.047L81.6512 156.984L76.1729 166.37L16.9694 131.856ZM53.4451 140.465C55.3141 140.034 57.1245 139.249 58.8372 137.875C60.5499 136.502 61.889 135.068 62.8348 133.458C64.9236 129.963 65.2817 126.27 64.0664 122.596C62.851 118.922 60.1598 115.856 56.1303 113.496C52.1009 111.136 48.0698 110.23 44.1943 110.993C40.3187 111.757 37.3858 113.817 35.3166 117.43C34.3707 119.04 33.6999 120.847 33.3239 122.968C32.9478 125.09 33.0244 127.015 33.7106 128.96L53.4451 140.465Z" fill="#242938"/>
<path d="M105.794 60.4527C108.328 63.3027 110.154 66.2701 111.291 69.4728C112.408 72.5575 112.936 75.7401 112.736 78.9223C112.536 82.1044 111.726 85.2664 110.149 88.1922C108.592 91.2359 106.386 94.0238 103.531 96.5559C100.676 99.088 97.5861 100.932 94.3789 102.07C91.1716 103.207 87.9847 103.735 84.7986 103.536C81.6125 103.338 78.5648 102.511 75.5179 100.957C72.589 99.3834 69.7985 97.1815 67.2644 94.3315C64.8679 91.5798 62.924 88.6319 61.7868 85.4293C60.5315 82.2462 60.122 79.044 60.2042 75.8815C60.4045 72.6993 61.2144 69.5373 62.7716 66.4936C64.3288 63.4499 66.5348 60.662 69.3895 58.1299C72.3623 55.5783 75.3343 53.7534 78.522 52.4984C81.7293 51.3612 84.9162 50.833 88.1218 51.1494C91.3079 51.348 94.4932 52.2734 97.4221 53.8469C100.607 55.499 103.378 57.5831 105.794 60.4527ZM97.7608 67.5975C96.2679 65.9072 94.5975 64.6096 92.8482 63.5673C90.9808 62.5446 89.172 61.8755 87.2053 61.717C85.3567 61.539 83.4486 61.7341 81.4811 62.3025C79.5136 62.8708 77.7423 63.8911 76.0687 65.5007C74.3755 66.9925 73.0755 68.6613 72.2868 70.4876C71.498 72.3139 71.0829 74.1994 71.0218 76.0262C70.9803 77.9709 71.4109 79.8373 72.2152 81.7629C73.0195 83.6886 74.1583 85.4376 75.6513 87.1279C77.1442 88.8183 78.8341 90.2337 80.564 91.1581C82.2938 92.0826 84.2206 92.7321 86.0888 93.028C87.957 93.3239 89.865 93.1288 91.695 92.4621C93.5249 91.7955 95.4142 90.7556 97.1074 89.2639C98.8005 87.7721 100.101 86.1033 100.889 84.277C101.678 82.4506 102.211 80.5456 102.135 78.6205C102.176 76.6758 101.746 74.8094 101.059 72.8642C100.412 71.1548 99.2733 69.4057 97.7608 67.5975Z" fill="#242938"/>
<path d="M125.215 53.2369C127.021 56.0865 129.654 58.0722 132.977 59.0959C136.3 60.1196 140.097 59.6115 144.17 57.8463C147.456 56.4538 150.074 54.6876 151.925 52.6852C153.894 50.6633 155.333 48.366 156.397 46.0095L164.594 50.8276C162.976 54.9713 160.73 58.2503 157.994 60.7628C155.237 63.1575 151.95 65.2767 148.094 66.8849C144.591 68.4344 141.089 69.2571 137.588 69.3529C134.087 69.4488 130.862 69.0145 127.755 67.8338C124.668 66.771 121.818 64.9422 119.382 62.6815C116.926 60.303 114.884 57.4926 113.334 53.995C111.803 50.6153 111.119 47.2165 110.926 43.8574C110.733 40.4982 111.287 37.2574 112.49 34.2724C113.693 31.2874 115.427 28.5778 117.81 26.1239C120.193 23.6701 123.145 21.7274 126.648 20.1779C130.268 18.6089 133.888 17.7666 137.409 17.7886C140.91 17.6928 144.194 18.4807 147.339 19.8972C150.485 21.3136 153.393 23.496 156.045 26.3265C158.698 29.1569 160.995 32.7729 162.8 37.076L125.215 53.2369ZM147.817 33.0193C146.049 30.4056 143.573 28.636 140.309 27.9659C137.044 27.2958 133.819 27.5883 130.768 28.9417C127.6 30.3146 125.159 32.4148 123.445 35.2423C121.73 38.0698 121.137 41.0749 121.901 44.2183L147.817 33.0193Z" fill="#242938"/>
<path d="M221.792 49.0982L207.826 50.4442L189.653 32.2618L185.221 37.7197L186.562 52.3943L175.684 53.3495L171.136 4.68948L182.014 3.73427L183.977 24.3613L201.605 1.94025L216.417 0.57517L195.974 25.0372L221.792 49.0982Z" fill="#242938"/>
<path d="M279.653 35.2688L270.077 33.1016L273.456 18.3713L264.391 16.3615L257.869 45.0563L268.448 47.4206L266.274 56.9856L234.517 49.7747L236.691 40.2097L247.27 42.5741L253.793 13.8793L244.708 11.7517L241.328 26.4821L231.87 24.2953L237.424 0L285.187 10.8557L279.653 35.2688Z" fill="#242938"/>
<path d="M315.576 63.2261C313.014 67.5263 309.766 69.8813 305.734 70.4286C301.701 70.9759 297.257 69.7747 292.422 66.9428L278.427 58.6045L303.61 16.6433L312.907 22.2479L303.114 38.5258L307.949 41.3577C312.785 44.1897 315.888 47.5508 317.359 51.3037C318.673 54.8404 318.138 58.9259 315.576 63.2261ZM306.161 57.641C307.126 56.1487 307.246 54.6756 306.52 53.2214C305.931 51.8656 304.635 50.6272 302.866 49.4671L298.03 46.6352L292.612 55.6479L297.447 58.4798C299.334 59.6204 300.985 60.0733 302.421 59.9564C303.857 59.8395 305.196 59.1332 306.161 57.641ZM338.047 37.0957L347.344 42.7004L322.161 84.6616L312.864 79.0569L338.047 37.0957Z" fill="#242938"/>
</svg>
