<svg width="22" height="19" viewBox="0 0 22 19" fill="none" xmlns="http://www.w3.org/2000/svg">
<path d="M7.1458 18.2993C14.987 18.2993 19.2748 11.452 19.2748 5.51456C19.2748 5.32007 19.271 5.12646 19.2627 4.93373C20.0951 4.29946 20.8186 3.50794 21.3892 2.60692C20.6254 2.96479 19.8034 3.20571 18.9411 3.31434C19.8212 2.75804 20.497 1.87804 20.8157 0.828956C19.992 1.34364 19.0799 1.71772 18.1087 1.91965C17.3308 1.04622 16.2233 0.5 14.997 0.5C12.6429 0.5 10.7338 2.51231 10.7338 4.99287C10.7338 5.34548 10.7712 5.68845 10.8443 6.01741C7.30124 5.8295 4.1596 4.04147 2.05728 1.32262C1.69117 1.98667 1.48006 2.75804 1.48006 3.5811C1.48006 5.14004 2.23264 6.51633 3.3771 7.32143C2.67771 7.29865 2.02071 7.09628 1.4464 6.75944C1.44577 6.77829 1.44578 6.79667 1.44578 6.81682C1.44578 8.99295 2.9152 10.8099 4.86584 11.2216C4.50763 11.3246 4.13071 11.3798 3.74175 11.3798C3.46748 11.3798 3.20027 11.3513 2.94055 11.2987C3.48327 13.0841 5.057 14.3833 6.92287 14.4197C5.46383 15.6251 3.62581 16.3431 1.62821 16.3431C1.28454 16.3431 0.945024 16.3225 0.611328 16.2809C2.49797 17.5555 4.73826 18.2993 7.14602 18.2993" fill="#DBDADA"/>
</svg>
