<svg width="22" height="16" viewBox="0 0 22 16" fill="none" xmlns="http://www.w3.org/2000/svg">
<path fill-rule="evenodd" clip-rule="evenodd" d="M19.1298 0.955375C20.0197 1.20794 20.7215 1.94759 20.9611 2.88568C21.4061 4.59951 21.389 8.17148 21.389 8.17148C21.389 8.17148 21.389 11.7254 20.9611 13.4392C20.7215 14.3773 20.0197 15.117 19.1298 15.3696C17.5038 15.8206 11.0001 15.8206 11.0001 15.8206C11.0001 15.8206 4.51355 15.8206 2.87051 15.3515C1.98053 15.0989 1.27881 14.3593 1.0392 13.4212C0.611328 11.7254 0.611328 8.15344 0.611328 8.15344C0.611328 8.15344 0.611328 4.59951 1.0392 2.88568C1.27881 1.94759 1.99764 1.1899 2.87051 0.937335C4.49644 0.486328 11.0001 0.486328 11.0001 0.486328C11.0001 0.486328 17.5038 0.486328 19.1298 0.955375ZM14.3374 8.15335L8.92904 4.87002V11.4367L14.3374 8.15335Z" fill="#DBDADA"/>
</svg>
